G75*
%MOIN*%
%OFA0B0*%
%FSLAX24Y24*%
%IPPOS*%
%LPD*%
%AMOC8*
5,1,8,0,0,1.08239X$1,22.5*
%
%ADD10C,0.0574*%
%ADD11C,0.1306*%
%ADD12OC8,0.0600*%
%ADD13R,0.0600X0.0600*%
%ADD14C,0.1378*%
%ADD15OC8,0.0560*%
%ADD16R,0.0787X0.0630*%
%ADD17R,0.0709X0.0630*%
%ADD18OC8,0.0630*%
%ADD19C,0.0630*%
%ADD20OC8,0.0650*%
%ADD21C,0.0240*%
%ADD22C,0.0160*%
%ADD23C,0.0400*%
%ADD24C,0.0100*%
%ADD25C,0.0396*%
%ADD26C,0.1969*%
D10*
X024842Y015681D02*
X024842Y016255D01*
X025826Y016255D02*
X025826Y015681D01*
X026614Y015681D02*
X026614Y016255D01*
X027598Y016255D02*
X027598Y015681D01*
X031767Y015697D02*
X031767Y016271D01*
X032752Y016271D02*
X032752Y015697D01*
X033539Y015697D02*
X033539Y016271D01*
X034523Y016271D02*
X034523Y015697D01*
D11*
X035732Y017051D03*
X030559Y017051D03*
X028807Y017035D03*
X023634Y017035D03*
D12*
X027744Y012236D03*
X027744Y011236D03*
X026744Y011236D03*
X026744Y010236D03*
X027744Y010236D03*
X027744Y009236D03*
X026744Y009236D03*
X034185Y009720D03*
X035185Y009720D03*
X035185Y008720D03*
X034185Y008720D03*
X034185Y007720D03*
X035185Y007720D03*
X035185Y006720D03*
X034185Y006720D03*
X034185Y005720D03*
X035185Y005720D03*
X035185Y004720D03*
X034185Y004720D03*
X034185Y010720D03*
X035185Y010720D03*
X035185Y011720D03*
X034185Y011720D03*
X034185Y012720D03*
D13*
X035185Y012720D03*
X026744Y012236D03*
D14*
X019055Y019338D03*
X016378Y019653D03*
X013720Y019338D03*
X009212Y019319D03*
X006535Y019633D03*
X003878Y019319D03*
D15*
X005197Y018137D03*
X006023Y018137D03*
X007047Y018137D03*
X007874Y018137D03*
X007874Y017153D03*
X006889Y017153D03*
X006023Y017153D03*
X005197Y017173D03*
X015039Y017193D03*
X015039Y018157D03*
X015866Y018157D03*
X016889Y018157D03*
X017716Y018157D03*
X017716Y017173D03*
D16*
X017008Y013256D03*
X017008Y012153D03*
X015433Y012153D03*
X015433Y013256D03*
X022126Y009712D03*
X022126Y008610D03*
X023700Y008610D03*
X023700Y009712D03*
X029212Y009712D03*
X029212Y008610D03*
X030787Y008610D03*
X030787Y009712D03*
D17*
X030787Y012153D03*
X030787Y013256D03*
X029212Y013256D03*
X029212Y012153D03*
X032362Y012153D03*
X032362Y013256D03*
X025275Y013256D03*
X025275Y012153D03*
X023700Y012153D03*
X023700Y013256D03*
X022126Y013256D03*
X022126Y012153D03*
X020157Y012153D03*
X020157Y013256D03*
X018582Y013256D03*
X018582Y012153D03*
X013858Y012153D03*
X013858Y013256D03*
X012283Y013256D03*
X012283Y012153D03*
X010708Y012153D03*
X010708Y013256D03*
X009134Y013256D03*
X009134Y012153D03*
X007559Y012153D03*
X007559Y013256D03*
D18*
X026763Y006405D03*
X029300Y006405D03*
D19*
X030700Y006405D03*
X025363Y006405D03*
D20*
X021441Y007444D03*
X021441Y003444D03*
D21*
X029212Y008610D02*
X029370Y008610D01*
X030787Y008610D02*
X031023Y008610D01*
X026744Y012236D02*
X026661Y012153D01*
X022126Y012153D02*
X021968Y012153D01*
X020157Y013256D02*
X019921Y013256D01*
D22*
X018582Y013256D02*
X017008Y013256D01*
X017008Y013885D01*
X016496Y014397D01*
X016496Y017527D01*
X015866Y018157D01*
X015039Y017193D02*
X015433Y016720D01*
X015433Y013256D01*
X013858Y013256D01*
X013071Y012704D02*
X013071Y008767D01*
X017008Y004830D01*
X032362Y004830D01*
X033252Y005720D01*
X034185Y005720D01*
X034689Y005224D02*
X035185Y005720D01*
X034689Y005224D02*
X033543Y005224D01*
X032756Y004437D01*
X017008Y004437D01*
X012283Y009161D01*
X012283Y010736D01*
X011496Y011523D01*
X011496Y012704D01*
X010945Y013256D01*
X010708Y013256D01*
X010236Y013256D01*
X009527Y013964D01*
X009527Y015067D01*
X008425Y016169D01*
X008425Y017507D01*
X008267Y017665D01*
X005669Y017665D01*
X005197Y018137D01*
X005590Y018610D02*
X005866Y018334D01*
X006023Y018137D01*
X005590Y018610D02*
X004803Y018610D01*
X004409Y018216D01*
X004409Y016405D01*
X004960Y015854D01*
X006771Y015854D01*
X007559Y015067D01*
X007559Y013256D01*
X007795Y013256D01*
X008346Y012704D01*
X008346Y011681D01*
X008897Y011130D01*
X010708Y011130D01*
X011889Y009948D01*
X011889Y009161D01*
X017008Y004043D01*
X033508Y004043D01*
X034185Y004720D01*
X033149Y006405D02*
X033149Y006799D01*
X033543Y007193D01*
X034657Y007193D01*
X035185Y007720D01*
X034185Y007720D02*
X033283Y007720D01*
X032362Y006799D01*
X032362Y006405D01*
X031574Y005618D01*
X019370Y005618D01*
X017008Y007980D01*
X017008Y012153D01*
X015433Y012153D02*
X015433Y009161D01*
X019370Y005224D01*
X031968Y005224D01*
X033149Y006405D01*
X031023Y008610D02*
X030393Y007980D01*
X028582Y007980D01*
X028267Y008295D01*
X028267Y009712D01*
X027744Y010236D01*
X028582Y010319D02*
X027744Y011236D01*
X028031Y011523D01*
X028819Y011523D01*
X029212Y011917D01*
X029212Y012153D01*
X030000Y011523D02*
X029212Y010736D01*
X029212Y009712D01*
X028582Y010319D02*
X028582Y008925D01*
X028976Y008610D01*
X029370Y008610D01*
X030000Y008767D02*
X030393Y008374D01*
X030630Y008374D01*
X030787Y008610D01*
X030000Y008767D02*
X030000Y010578D01*
X030787Y011366D01*
X030787Y012153D01*
X030000Y011523D02*
X030000Y013885D01*
X031181Y015067D01*
X032362Y015067D01*
X032752Y015456D01*
X032752Y015984D01*
X033539Y015984D02*
X033539Y015063D01*
X032756Y014279D01*
X031968Y014279D01*
X031574Y013885D01*
X031574Y011130D01*
X030787Y010342D01*
X030787Y009712D01*
X026744Y010236D02*
X026350Y010236D01*
X026063Y009948D01*
X026063Y008374D01*
X024882Y007193D01*
X022519Y007193D01*
X022126Y007586D01*
X022126Y008610D01*
X020945Y009791D01*
X020945Y011130D01*
X021968Y012153D01*
X022913Y011130D02*
X022913Y013885D01*
X023700Y014673D01*
X024882Y014673D01*
X025826Y015618D01*
X025826Y015968D01*
X026614Y015968D02*
X026614Y015618D01*
X024488Y013492D01*
X024488Y011130D01*
X023700Y010342D01*
X023700Y009712D01*
X022913Y009161D02*
X023307Y008767D01*
X023543Y008767D01*
X023700Y008610D01*
X024567Y008610D01*
X024882Y008925D01*
X024882Y009555D01*
X026563Y011236D01*
X026744Y011236D01*
X023700Y011287D02*
X022913Y010500D01*
X022913Y009161D01*
X022126Y009712D02*
X022126Y010342D01*
X022913Y011130D01*
X023700Y011287D02*
X023700Y012153D01*
X013071Y012704D02*
X012519Y013256D01*
X012283Y013256D01*
X011889Y013492D01*
X010708Y014673D01*
X010708Y016326D01*
X008346Y018689D01*
X007244Y018689D01*
X007086Y018531D01*
X007086Y018177D01*
X007047Y018137D01*
X006289Y017265D02*
X005797Y017265D01*
X005797Y016924D01*
X005590Y016718D01*
X005590Y016254D01*
X006851Y016254D01*
X006998Y016193D01*
X007785Y015406D01*
X007898Y015293D01*
X007959Y015146D01*
X007959Y013890D01*
X007977Y013890D01*
X008094Y013842D01*
X008184Y013752D01*
X008233Y013634D01*
X008233Y013383D01*
X008573Y013043D01*
X008676Y012941D01*
X009134Y012941D01*
X009134Y013869D01*
X009127Y013885D01*
X009127Y014901D01*
X008198Y015830D01*
X008086Y015942D01*
X008025Y016089D01*
X008025Y016254D01*
X007726Y016553D01*
X007625Y016553D01*
X007537Y016641D01*
X007226Y016641D01*
X007138Y016553D01*
X006641Y016553D01*
X006553Y016641D01*
X006378Y016641D01*
X006378Y016816D01*
X006289Y016905D01*
X006289Y017265D01*
X006289Y017209D02*
X005797Y017209D01*
X005797Y017050D02*
X006289Y017050D01*
X006302Y016892D02*
X005764Y016892D01*
X005605Y016733D02*
X006378Y016733D01*
X006619Y016575D02*
X005590Y016575D01*
X005590Y016416D02*
X007863Y016416D01*
X008021Y016258D02*
X005590Y016258D01*
X007092Y016099D02*
X008025Y016099D01*
X008087Y015941D02*
X007250Y015941D01*
X007409Y015782D02*
X008246Y015782D01*
X008404Y015624D02*
X007567Y015624D01*
X007726Y015465D02*
X008563Y015465D01*
X008721Y015307D02*
X007884Y015307D01*
X007958Y015148D02*
X008880Y015148D01*
X009038Y014990D02*
X007959Y014990D01*
X007959Y014831D02*
X009127Y014831D01*
X009127Y014673D02*
X007959Y014673D01*
X007959Y014514D02*
X009127Y014514D01*
X009127Y014356D02*
X007959Y014356D01*
X007959Y014197D02*
X009127Y014197D01*
X009127Y014039D02*
X007959Y014039D01*
X008002Y013880D02*
X009129Y013880D01*
X009134Y013722D02*
X008197Y013722D01*
X008233Y013563D02*
X009134Y013563D01*
X009134Y013405D02*
X008233Y013405D01*
X008370Y013246D02*
X009134Y013246D01*
X009134Y013088D02*
X008529Y013088D01*
X007604Y016575D02*
X007159Y016575D01*
D23*
X017716Y018157D02*
X018641Y018157D01*
X020157Y016641D01*
X020157Y013256D01*
X019921Y013256D02*
X019370Y012704D01*
X019370Y009515D01*
X021441Y007444D01*
X021551Y003492D02*
X021441Y003444D01*
X021551Y003492D02*
X034173Y003492D01*
X035185Y004504D01*
X035185Y004720D01*
X033149Y008374D02*
X031181Y006405D01*
X030700Y006405D01*
X033149Y008374D02*
X033149Y011685D01*
X033067Y011685D01*
X032519Y012232D01*
X032441Y012232D01*
X032362Y012153D01*
X033149Y011685D02*
X034185Y012720D01*
X034185Y014133D01*
X034523Y014472D01*
X034523Y015984D01*
X027598Y015968D02*
X027598Y013846D01*
X026744Y012992D01*
X026744Y012236D01*
X026661Y012153D02*
X025275Y012153D01*
D24*
X006585Y014995D02*
X006585Y002676D01*
X036564Y002676D01*
X036564Y020371D01*
X003042Y020371D01*
X003042Y015117D01*
X006464Y015117D01*
X006585Y014995D01*
X006585Y014978D02*
X007124Y014978D01*
X007189Y014913D02*
X007189Y014478D01*
X007182Y014446D01*
X007189Y014405D01*
X007189Y014363D01*
X007201Y014333D01*
X007207Y014301D01*
X007229Y014266D01*
X007245Y014227D01*
X007268Y014204D01*
X007309Y014140D01*
X007309Y013740D01*
X007134Y013740D01*
X007034Y013641D01*
X007034Y012870D01*
X007134Y012771D01*
X007926Y012771D01*
X008096Y012601D01*
X008096Y011631D01*
X008134Y011539D01*
X008756Y010918D01*
X008848Y010880D01*
X010605Y010880D01*
X011639Y009845D01*
X011639Y009111D01*
X011677Y009019D01*
X011748Y008949D01*
X016866Y003831D01*
X016958Y003793D01*
X021089Y003793D01*
X020946Y003649D01*
X020946Y003240D01*
X021236Y002950D01*
X021646Y002950D01*
X021818Y003122D01*
X034246Y003122D01*
X034382Y003178D01*
X034487Y003282D01*
X035498Y004294D01*
X035551Y004422D01*
X035655Y004525D01*
X035655Y004915D01*
X035379Y005190D01*
X035008Y005190D01*
X035068Y005250D01*
X035379Y005250D01*
X035655Y005525D01*
X035655Y005915D01*
X035379Y006190D01*
X034990Y006190D01*
X034715Y005915D01*
X034715Y005604D01*
X034655Y005544D01*
X034655Y005915D01*
X034379Y006190D01*
X033990Y006190D01*
X033770Y005970D01*
X033202Y005970D01*
X033110Y005932D01*
X033040Y005862D01*
X032258Y005080D01*
X032178Y005080D01*
X033291Y006193D01*
X033361Y006264D01*
X033399Y006355D01*
X033399Y006695D01*
X033647Y006943D01*
X034707Y006943D01*
X034799Y006981D01*
X035068Y007250D01*
X035379Y007250D01*
X035655Y007525D01*
X035655Y007915D01*
X035379Y008190D01*
X034990Y008190D01*
X034715Y007915D01*
X034715Y007604D01*
X034655Y007544D01*
X034655Y007915D01*
X034379Y008190D01*
X033990Y008190D01*
X033770Y007970D01*
X033269Y007970D01*
X033359Y008060D01*
X033463Y008164D01*
X033519Y008300D01*
X033519Y011531D01*
X033715Y011727D01*
X033715Y011525D01*
X033990Y011250D01*
X034379Y011250D01*
X034655Y011525D01*
X034655Y011915D01*
X034379Y012190D01*
X034178Y012190D01*
X034238Y012250D01*
X034379Y012250D01*
X034655Y012525D01*
X034655Y012915D01*
X034555Y013015D01*
X034555Y013980D01*
X034733Y014158D01*
X034837Y014262D01*
X034893Y014398D01*
X034893Y015421D01*
X034911Y015438D01*
X034980Y015606D01*
X034980Y016362D01*
X034911Y016530D01*
X034782Y016658D01*
X034614Y016728D01*
X034432Y016728D01*
X034264Y016658D01*
X034136Y016530D01*
X034066Y016362D01*
X034066Y015606D01*
X034136Y015438D01*
X034153Y015421D01*
X034153Y014625D01*
X033871Y014343D01*
X033815Y014207D01*
X033815Y013015D01*
X033715Y012915D01*
X033715Y012773D01*
X033108Y012167D01*
X032886Y012388D01*
X032886Y012539D01*
X032787Y012638D01*
X031937Y012638D01*
X031838Y012539D01*
X031838Y011768D01*
X031937Y011668D01*
X032560Y011668D01*
X032779Y011449D01*
X032779Y008527D01*
X031028Y006775D01*
X031016Y006775D01*
X030974Y006816D01*
X030796Y006890D01*
X030603Y006890D01*
X030425Y006816D01*
X030289Y006680D01*
X030215Y006502D01*
X030215Y006309D01*
X030289Y006130D01*
X030425Y005994D01*
X030603Y005920D01*
X030796Y005920D01*
X030974Y005994D01*
X031016Y006035D01*
X031254Y006035D01*
X031390Y006091D01*
X032112Y006813D01*
X032112Y006509D01*
X031471Y005868D01*
X019473Y005868D01*
X017258Y008083D01*
X020279Y008083D01*
X020181Y008181D02*
X017258Y008181D01*
X017258Y008083D02*
X017258Y011668D01*
X017472Y011668D01*
X017571Y011768D01*
X017571Y012539D01*
X017472Y012638D01*
X016543Y012638D01*
X016444Y012539D01*
X016444Y011768D01*
X016543Y011668D01*
X016758Y011668D01*
X016758Y008190D01*
X015683Y009265D01*
X016758Y009265D01*
X016758Y009363D02*
X015683Y009363D01*
X015683Y009265D02*
X015683Y011668D01*
X015897Y011668D01*
X015996Y011768D01*
X015996Y012539D01*
X015897Y012638D01*
X014969Y012638D01*
X014869Y012539D01*
X014869Y011768D01*
X014969Y011668D01*
X015183Y011668D01*
X015183Y009111D01*
X015221Y009019D01*
X019158Y005082D01*
X019160Y005080D01*
X017111Y005080D01*
X013321Y008871D01*
X015370Y008871D01*
X015468Y008772D02*
X013419Y008772D01*
X013518Y008674D02*
X015567Y008674D01*
X015665Y008575D02*
X013616Y008575D01*
X013715Y008477D02*
X015764Y008477D01*
X015862Y008378D02*
X013813Y008378D01*
X013912Y008280D02*
X015961Y008280D01*
X016059Y008181D02*
X014010Y008181D01*
X014109Y008083D02*
X016158Y008083D01*
X016256Y007984D02*
X014207Y007984D01*
X014306Y007886D02*
X016355Y007886D01*
X016453Y007787D02*
X014404Y007787D01*
X014503Y007689D02*
X016552Y007689D01*
X016650Y007590D02*
X014601Y007590D01*
X014700Y007492D02*
X016749Y007492D01*
X016847Y007393D02*
X014798Y007393D01*
X014897Y007295D02*
X016946Y007295D01*
X017044Y007196D02*
X014995Y007196D01*
X015094Y007098D02*
X017143Y007098D01*
X017241Y006999D02*
X015192Y006999D01*
X015291Y006901D02*
X017340Y006901D01*
X017438Y006802D02*
X015389Y006802D01*
X015488Y006704D02*
X017537Y006704D01*
X017635Y006605D02*
X015586Y006605D01*
X015685Y006507D02*
X017734Y006507D01*
X017832Y006408D02*
X015783Y006408D01*
X015882Y006310D02*
X017931Y006310D01*
X018029Y006211D02*
X015980Y006211D01*
X016079Y006113D02*
X018128Y006113D01*
X018226Y006014D02*
X016177Y006014D01*
X016276Y005916D02*
X018325Y005916D01*
X018423Y005817D02*
X016374Y005817D01*
X016473Y005719D02*
X018522Y005719D01*
X018620Y005620D02*
X016571Y005620D01*
X016670Y005522D02*
X018719Y005522D01*
X018817Y005423D02*
X016768Y005423D01*
X016867Y005325D02*
X018916Y005325D01*
X019014Y005226D02*
X016965Y005226D01*
X017064Y005128D02*
X019113Y005128D01*
X019425Y005916D02*
X031519Y005916D01*
X031617Y006014D02*
X030995Y006014D01*
X030405Y006014D02*
X025658Y006014D01*
X025637Y005994D02*
X025774Y006130D01*
X025848Y006309D01*
X025848Y006502D01*
X025774Y006680D01*
X025637Y006816D01*
X025459Y006890D01*
X025266Y006890D01*
X025088Y006816D01*
X024951Y006680D01*
X024878Y006502D01*
X024878Y006309D01*
X024951Y006130D01*
X025088Y005994D01*
X025266Y005920D01*
X025459Y005920D01*
X025637Y005994D01*
X025756Y006113D02*
X030306Y006113D01*
X030255Y006211D02*
X025807Y006211D01*
X025848Y006310D02*
X030215Y006310D01*
X030215Y006408D02*
X025848Y006408D01*
X025846Y006507D02*
X030217Y006507D01*
X030258Y006605D02*
X025805Y006605D01*
X025750Y006704D02*
X030312Y006704D01*
X030411Y006802D02*
X025652Y006802D01*
X025239Y007196D02*
X031449Y007196D01*
X031547Y007295D02*
X025337Y007295D01*
X025436Y007393D02*
X031646Y007393D01*
X031744Y007492D02*
X025534Y007492D01*
X025633Y007590D02*
X031843Y007590D01*
X031941Y007689D02*
X025731Y007689D01*
X025830Y007787D02*
X028422Y007787D01*
X028441Y007768D02*
X028533Y007730D01*
X030443Y007730D01*
X030535Y007768D01*
X030605Y007838D01*
X030605Y007838D01*
X030892Y008125D01*
X031251Y008125D01*
X031351Y008224D01*
X031351Y008995D01*
X031251Y009095D01*
X030323Y009095D01*
X030250Y009022D01*
X030250Y009301D01*
X030323Y009227D01*
X031251Y009227D01*
X031351Y009327D01*
X031351Y010098D01*
X031251Y010197D01*
X031037Y010197D01*
X031037Y010239D01*
X031786Y010988D01*
X031824Y011080D01*
X031824Y013782D01*
X032072Y014029D01*
X032805Y014029D01*
X032897Y014067D01*
X033681Y014851D01*
X033751Y014921D01*
X033789Y015013D01*
X033789Y015306D01*
X033798Y015309D01*
X033926Y015438D01*
X033996Y015606D01*
X033996Y016362D01*
X033926Y016530D01*
X033798Y016658D01*
X033630Y016728D01*
X033448Y016728D01*
X033280Y016658D01*
X033152Y016530D01*
X033145Y016515D01*
X033139Y016530D01*
X033011Y016658D01*
X032843Y016728D01*
X032661Y016728D01*
X032493Y016658D01*
X032364Y016530D01*
X032295Y016362D01*
X032295Y015606D01*
X032364Y015438D01*
X032372Y015430D01*
X032258Y015317D01*
X031131Y015317D01*
X031039Y015278D01*
X030969Y015208D01*
X029858Y014097D01*
X029788Y014027D01*
X029750Y013935D01*
X029750Y011627D01*
X029071Y010948D01*
X029000Y010877D01*
X028962Y010786D01*
X028962Y010197D01*
X028832Y010197D01*
X028832Y010313D01*
X028834Y010357D01*
X028832Y010362D01*
X028832Y010368D01*
X028815Y010409D01*
X028800Y010450D01*
X028797Y010455D01*
X028794Y010460D01*
X028763Y010491D01*
X028214Y011092D01*
X028214Y011273D01*
X028868Y011273D01*
X028960Y011311D01*
X029031Y011382D01*
X029317Y011668D01*
X029637Y011668D01*
X029737Y011768D01*
X029737Y012539D01*
X029637Y012638D01*
X028788Y012638D01*
X028688Y012539D01*
X028688Y011773D01*
X027981Y011773D01*
X027890Y011735D01*
X027860Y011706D01*
X027549Y011706D01*
X027274Y011431D01*
X027274Y011041D01*
X027549Y010766D01*
X027835Y010766D01*
X027890Y010706D01*
X027549Y010706D01*
X027274Y010431D01*
X027274Y010041D01*
X027549Y009766D01*
X027860Y009766D01*
X027920Y009706D01*
X027549Y009706D01*
X027274Y009431D01*
X027274Y009041D01*
X027549Y008766D01*
X027938Y008766D01*
X028017Y008845D01*
X028017Y008245D01*
X028055Y008153D01*
X028126Y008083D01*
X028441Y007768D01*
X028323Y007886D02*
X025928Y007886D01*
X026027Y007984D02*
X028225Y007984D01*
X028126Y008083D02*
X026125Y008083D01*
X026224Y008181D02*
X028044Y008181D01*
X028017Y008280D02*
X026294Y008280D01*
X026313Y008324D02*
X026313Y009845D01*
X026391Y009924D01*
X026549Y009766D01*
X026938Y009766D01*
X027214Y010041D01*
X027214Y010431D01*
X026938Y010706D01*
X026549Y010706D01*
X026329Y010486D01*
X026300Y010486D01*
X026208Y010448D01*
X025921Y010160D01*
X025851Y010090D01*
X025813Y009998D01*
X025813Y008477D01*
X024778Y007443D01*
X022623Y007443D01*
X022376Y007690D01*
X022376Y008125D01*
X022590Y008125D01*
X022689Y008224D01*
X022689Y008995D01*
X022590Y009095D01*
X021994Y009095D01*
X021862Y009227D01*
X022590Y009227D01*
X022663Y009301D01*
X022663Y009111D01*
X022701Y009019D01*
X023095Y008626D01*
X023137Y008584D01*
X023137Y008224D01*
X023236Y008125D01*
X024165Y008125D01*
X024264Y008224D01*
X024264Y008360D01*
X024616Y008360D01*
X024708Y008398D01*
X024779Y008468D01*
X025094Y008783D01*
X025132Y008875D01*
X025132Y009451D01*
X026498Y010817D01*
X026549Y010766D01*
X026938Y010766D01*
X027214Y011041D01*
X027214Y011431D01*
X026938Y011706D01*
X026549Y011706D01*
X026274Y011431D01*
X026274Y011300D01*
X024740Y009767D01*
X024670Y009696D01*
X024632Y009604D01*
X024632Y009028D01*
X024463Y008860D01*
X024264Y008860D01*
X024264Y008995D01*
X024165Y009095D01*
X023333Y009095D01*
X023163Y009265D01*
X023199Y009265D01*
X023163Y009265D02*
X023163Y009301D01*
X023236Y009227D01*
X024165Y009227D01*
X024264Y009327D01*
X024264Y010098D01*
X024165Y010197D01*
X023950Y010197D01*
X023950Y010239D01*
X024629Y010918D01*
X024700Y010988D01*
X024738Y011080D01*
X024738Y013388D01*
X026574Y015224D01*
X026705Y015224D01*
X026873Y015294D01*
X027001Y015422D01*
X027071Y015590D01*
X027071Y016346D01*
X027001Y016514D01*
X026873Y016643D01*
X026705Y016712D01*
X026523Y016712D01*
X026355Y016643D01*
X026226Y016514D01*
X026220Y016499D01*
X026214Y016514D01*
X026085Y016643D01*
X025917Y016712D01*
X025736Y016712D01*
X025568Y016643D01*
X025439Y016514D01*
X025369Y016346D01*
X025369Y015590D01*
X025392Y015537D01*
X024778Y014923D01*
X023651Y014923D01*
X023559Y014885D01*
X022701Y014027D01*
X022663Y013935D01*
X022663Y011233D01*
X021914Y010484D01*
X021876Y010392D01*
X021876Y010197D01*
X021662Y010197D01*
X021562Y010098D01*
X021562Y009527D01*
X021195Y009894D01*
X021195Y011026D01*
X021837Y011668D01*
X022550Y011668D01*
X022650Y011768D01*
X022650Y012539D01*
X022550Y012638D01*
X021701Y012638D01*
X021601Y012539D01*
X021601Y012140D01*
X020733Y011271D01*
X020695Y011179D01*
X020695Y009741D01*
X020733Y009649D01*
X020803Y009579D01*
X021562Y008820D01*
X021562Y008224D01*
X021662Y008125D01*
X021876Y008125D01*
X021876Y007709D01*
X021646Y007939D01*
X021469Y007939D01*
X019740Y009669D01*
X019740Y012551D01*
X019959Y012771D01*
X020582Y012771D01*
X020681Y012870D01*
X020681Y013641D01*
X020582Y013740D01*
X020527Y013740D01*
X020527Y016715D01*
X020471Y016851D01*
X018955Y018367D01*
X018851Y018471D01*
X018715Y018527D01*
X017983Y018527D01*
X017903Y018607D01*
X017530Y018607D01*
X017303Y018380D01*
X017076Y018607D01*
X016703Y018607D01*
X016439Y018343D01*
X016439Y017971D01*
X016703Y017707D01*
X017076Y017707D01*
X017303Y017934D01*
X017530Y017707D01*
X017903Y017707D01*
X017983Y017787D01*
X018488Y017787D01*
X019787Y016488D01*
X019787Y013740D01*
X019732Y013740D01*
X019633Y013641D01*
X019633Y013491D01*
X019160Y013018D01*
X019107Y012965D01*
X019107Y013641D01*
X019007Y013740D01*
X018158Y013740D01*
X018058Y013641D01*
X018058Y013506D01*
X017571Y013506D01*
X017571Y013641D01*
X017472Y013740D01*
X017258Y013740D01*
X017258Y013935D01*
X017219Y014027D01*
X017149Y014097D01*
X016746Y014501D01*
X016746Y017577D01*
X016708Y017669D01*
X016316Y018061D01*
X016316Y018343D01*
X016052Y018607D01*
X015679Y018607D01*
X015416Y018343D01*
X015416Y017971D01*
X015679Y017707D01*
X015962Y017707D01*
X016246Y017424D01*
X016246Y014348D01*
X016284Y014256D01*
X016354Y014185D01*
X016758Y013782D01*
X016758Y013740D01*
X016543Y013740D01*
X016444Y013641D01*
X016444Y012870D01*
X016543Y012771D01*
X017472Y012771D01*
X017571Y012870D01*
X017571Y013006D01*
X018058Y013006D01*
X018058Y012870D01*
X018158Y012771D01*
X019000Y012771D01*
X019000Y009442D01*
X019056Y009306D01*
X020946Y007416D01*
X020946Y007240D01*
X021236Y006950D01*
X021646Y006950D01*
X021935Y007240D01*
X021935Y007423D01*
X021984Y007374D01*
X022378Y006981D01*
X022470Y006943D01*
X024931Y006943D01*
X025023Y006981D01*
X025094Y007051D01*
X026275Y008232D01*
X026313Y008324D01*
X026313Y008378D02*
X028017Y008378D01*
X028017Y008477D02*
X026313Y008477D01*
X026313Y008575D02*
X028017Y008575D01*
X028017Y008674D02*
X026313Y008674D01*
X026313Y008772D02*
X027543Y008772D01*
X027444Y008871D02*
X026313Y008871D01*
X026313Y008969D02*
X027346Y008969D01*
X027274Y009068D02*
X026313Y009068D01*
X026313Y009166D02*
X027274Y009166D01*
X027274Y009265D02*
X026313Y009265D01*
X026313Y009363D02*
X027274Y009363D01*
X027305Y009462D02*
X026313Y009462D01*
X026313Y009560D02*
X027403Y009560D01*
X027502Y009659D02*
X026313Y009659D01*
X026313Y009757D02*
X027869Y009757D01*
X027459Y009856D02*
X027028Y009856D01*
X027127Y009954D02*
X027361Y009954D01*
X027274Y010053D02*
X027214Y010053D01*
X027214Y010151D02*
X027274Y010151D01*
X027274Y010250D02*
X027214Y010250D01*
X027214Y010348D02*
X027274Y010348D01*
X027290Y010447D02*
X027198Y010447D01*
X027099Y010545D02*
X027388Y010545D01*
X027487Y010644D02*
X027001Y010644D01*
X027013Y010841D02*
X027474Y010841D01*
X027376Y010939D02*
X027112Y010939D01*
X027210Y011038D02*
X027277Y011038D01*
X027274Y011136D02*
X027214Y011136D01*
X027214Y011235D02*
X027274Y011235D01*
X027274Y011333D02*
X027214Y011333D01*
X027213Y011432D02*
X027275Y011432D01*
X027373Y011530D02*
X027114Y011530D01*
X027016Y011629D02*
X027472Y011629D01*
X027214Y011865D02*
X027214Y012606D01*
X027114Y012706D01*
X027114Y012706D01*
X027114Y012838D01*
X027808Y013532D01*
X027912Y013636D01*
X027968Y013772D01*
X027968Y015405D01*
X027986Y015422D01*
X028055Y015590D01*
X028055Y016346D01*
X027986Y016514D01*
X027857Y016643D01*
X027689Y016712D01*
X027507Y016712D01*
X027339Y016643D01*
X027211Y016514D01*
X027141Y016346D01*
X027141Y015590D01*
X027211Y015422D01*
X027228Y015405D01*
X027228Y013999D01*
X026534Y013305D01*
X026430Y013201D01*
X026374Y013065D01*
X026374Y012706D01*
X026373Y012706D01*
X026274Y012606D01*
X026274Y012523D01*
X025800Y012523D01*
X025800Y012539D01*
X025700Y012638D01*
X024851Y012638D01*
X024751Y012539D01*
X024751Y011768D01*
X024851Y011668D01*
X025700Y011668D01*
X025800Y011768D01*
X025800Y011783D01*
X026356Y011783D01*
X026373Y011766D01*
X027114Y011766D01*
X027214Y011865D01*
X027174Y011826D02*
X028688Y011826D01*
X028688Y011924D02*
X027214Y011924D01*
X027214Y012023D02*
X028688Y012023D01*
X028688Y012121D02*
X027214Y012121D01*
X027214Y012220D02*
X028688Y012220D01*
X028688Y012318D02*
X027214Y012318D01*
X027214Y012417D02*
X028688Y012417D01*
X028688Y012515D02*
X027214Y012515D01*
X027206Y012614D02*
X028763Y012614D01*
X029661Y012614D02*
X029750Y012614D01*
X029750Y012712D02*
X027114Y012712D01*
X027114Y012811D02*
X029750Y012811D01*
X029750Y012909D02*
X027184Y012909D01*
X027283Y013008D02*
X029750Y013008D01*
X029750Y013106D02*
X027381Y013106D01*
X027480Y013205D02*
X029750Y013205D01*
X029750Y013303D02*
X027578Y013303D01*
X027677Y013402D02*
X029750Y013402D01*
X029750Y013500D02*
X027775Y013500D01*
X027808Y013532D02*
X027808Y013532D01*
X027874Y013599D02*
X029750Y013599D01*
X029750Y013697D02*
X027937Y013697D01*
X027968Y013796D02*
X029750Y013796D01*
X029750Y013894D02*
X027968Y013894D01*
X027968Y013993D02*
X029773Y013993D01*
X029852Y014091D02*
X027968Y014091D01*
X027968Y014190D02*
X029950Y014190D01*
X030049Y014288D02*
X027968Y014288D01*
X027968Y014387D02*
X030147Y014387D01*
X030246Y014485D02*
X027968Y014485D01*
X027968Y014584D02*
X030344Y014584D01*
X030443Y014682D02*
X027968Y014682D01*
X027968Y014781D02*
X030541Y014781D01*
X030640Y014879D02*
X027968Y014879D01*
X027968Y014978D02*
X030738Y014978D01*
X030837Y015076D02*
X027968Y015076D01*
X027968Y015175D02*
X030935Y015175D01*
X031034Y015273D02*
X027968Y015273D01*
X027968Y015372D02*
X032313Y015372D01*
X032351Y015470D02*
X028005Y015470D01*
X028046Y015569D02*
X032310Y015569D01*
X032295Y015667D02*
X028055Y015667D01*
X028055Y015766D02*
X032295Y015766D01*
X032295Y015864D02*
X028055Y015864D01*
X028055Y015963D02*
X032295Y015963D01*
X032295Y016061D02*
X028055Y016061D01*
X028055Y016160D02*
X032295Y016160D01*
X032295Y016258D02*
X028055Y016258D01*
X028051Y016357D02*
X032295Y016357D01*
X032333Y016455D02*
X028010Y016455D01*
X027946Y016554D02*
X032388Y016554D01*
X032487Y016652D02*
X027834Y016652D01*
X027362Y016652D02*
X026850Y016652D01*
X026962Y016554D02*
X027250Y016554D01*
X027186Y016455D02*
X027026Y016455D01*
X027066Y016357D02*
X027145Y016357D01*
X027141Y016258D02*
X027071Y016258D01*
X027071Y016160D02*
X027141Y016160D01*
X027141Y016061D02*
X027071Y016061D01*
X027071Y015963D02*
X027141Y015963D01*
X027141Y015864D02*
X027071Y015864D01*
X027071Y015766D02*
X027141Y015766D01*
X027141Y015667D02*
X027071Y015667D01*
X027062Y015569D02*
X027150Y015569D01*
X027191Y015470D02*
X027021Y015470D01*
X026951Y015372D02*
X027228Y015372D01*
X027228Y015273D02*
X026823Y015273D01*
X026524Y015175D02*
X027228Y015175D01*
X027228Y015076D02*
X026426Y015076D01*
X026327Y014978D02*
X027228Y014978D01*
X027228Y014879D02*
X026229Y014879D01*
X026130Y014781D02*
X027228Y014781D01*
X027228Y014682D02*
X026032Y014682D01*
X025933Y014584D02*
X027228Y014584D01*
X027228Y014485D02*
X025835Y014485D01*
X025736Y014387D02*
X027228Y014387D01*
X027228Y014288D02*
X025638Y014288D01*
X025539Y014190D02*
X027228Y014190D01*
X027228Y014091D02*
X025441Y014091D01*
X025342Y013993D02*
X027221Y013993D01*
X027123Y013894D02*
X025244Y013894D01*
X025145Y013796D02*
X027024Y013796D01*
X026926Y013697D02*
X025047Y013697D01*
X024948Y013599D02*
X026827Y013599D01*
X026729Y013500D02*
X024850Y013500D01*
X024751Y013402D02*
X026630Y013402D01*
X026534Y013305D02*
X026534Y013305D01*
X026532Y013303D02*
X024738Y013303D01*
X024738Y013205D02*
X026433Y013205D01*
X026391Y013106D02*
X024738Y013106D01*
X024738Y013008D02*
X026374Y013008D01*
X026374Y012909D02*
X024738Y012909D01*
X024738Y012811D02*
X026374Y012811D01*
X026374Y012712D02*
X024738Y012712D01*
X024738Y012614D02*
X024826Y012614D01*
X024751Y012515D02*
X024738Y012515D01*
X024738Y012417D02*
X024751Y012417D01*
X024738Y012318D02*
X024751Y012318D01*
X024738Y012220D02*
X024751Y012220D01*
X024738Y012121D02*
X024751Y012121D01*
X024738Y012023D02*
X024751Y012023D01*
X024738Y011924D02*
X024751Y011924D01*
X024738Y011826D02*
X024751Y011826D01*
X024738Y011727D02*
X024792Y011727D01*
X024738Y011629D02*
X026472Y011629D01*
X026373Y011530D02*
X024738Y011530D01*
X024738Y011432D02*
X026275Y011432D01*
X026274Y011333D02*
X024738Y011333D01*
X024738Y011235D02*
X026208Y011235D01*
X026109Y011136D02*
X024738Y011136D01*
X024720Y011038D02*
X026011Y011038D01*
X025912Y010939D02*
X024651Y010939D01*
X024553Y010841D02*
X025814Y010841D01*
X025715Y010742D02*
X024454Y010742D01*
X024356Y010644D02*
X025617Y010644D01*
X025518Y010545D02*
X024257Y010545D01*
X024159Y010447D02*
X025420Y010447D01*
X025321Y010348D02*
X024060Y010348D01*
X023962Y010250D02*
X025223Y010250D01*
X025124Y010151D02*
X024211Y010151D01*
X024264Y010053D02*
X025026Y010053D01*
X024927Y009954D02*
X024264Y009954D01*
X024264Y009856D02*
X024829Y009856D01*
X024730Y009757D02*
X024264Y009757D01*
X024264Y009659D02*
X024654Y009659D01*
X024632Y009560D02*
X024264Y009560D01*
X024264Y009462D02*
X024632Y009462D01*
X024632Y009363D02*
X024264Y009363D01*
X024202Y009265D02*
X024632Y009265D01*
X024632Y009166D02*
X023262Y009166D01*
X022850Y008871D02*
X022689Y008871D01*
X022689Y008969D02*
X022751Y008969D01*
X022681Y009068D02*
X022617Y009068D01*
X022663Y009166D02*
X021923Y009166D01*
X021511Y008871D02*
X020538Y008871D01*
X020439Y008969D02*
X021413Y008969D01*
X021314Y009068D02*
X020341Y009068D01*
X020242Y009166D02*
X021216Y009166D01*
X021117Y009265D02*
X020144Y009265D01*
X020045Y009363D02*
X021019Y009363D01*
X020920Y009462D02*
X019947Y009462D01*
X019848Y009560D02*
X020822Y009560D01*
X020729Y009659D02*
X019750Y009659D01*
X019740Y009757D02*
X020695Y009757D01*
X020695Y009856D02*
X019740Y009856D01*
X019740Y009954D02*
X020695Y009954D01*
X020695Y010053D02*
X019740Y010053D01*
X019740Y010151D02*
X020695Y010151D01*
X020695Y010250D02*
X019740Y010250D01*
X019740Y010348D02*
X020695Y010348D01*
X020695Y010447D02*
X019740Y010447D01*
X019740Y010545D02*
X020695Y010545D01*
X020695Y010644D02*
X019740Y010644D01*
X019740Y010742D02*
X020695Y010742D01*
X020695Y010841D02*
X019740Y010841D01*
X019740Y010939D02*
X020695Y010939D01*
X020695Y011038D02*
X019740Y011038D01*
X019740Y011136D02*
X020695Y011136D01*
X020717Y011235D02*
X019740Y011235D01*
X019740Y011333D02*
X020795Y011333D01*
X020893Y011432D02*
X019740Y011432D01*
X019740Y011530D02*
X020992Y011530D01*
X021090Y011629D02*
X019740Y011629D01*
X019740Y011727D02*
X021189Y011727D01*
X021287Y011826D02*
X019740Y011826D01*
X019740Y011924D02*
X021386Y011924D01*
X021484Y012023D02*
X019740Y012023D01*
X019740Y012121D02*
X021583Y012121D01*
X021601Y012220D02*
X019740Y012220D01*
X019740Y012318D02*
X021601Y012318D01*
X021601Y012417D02*
X019740Y012417D01*
X019740Y012515D02*
X021601Y012515D01*
X021676Y012614D02*
X019802Y012614D01*
X019901Y012712D02*
X022663Y012712D01*
X022663Y012614D02*
X022575Y012614D01*
X022650Y012515D02*
X022663Y012515D01*
X022650Y012417D02*
X022663Y012417D01*
X022650Y012318D02*
X022663Y012318D01*
X022650Y012220D02*
X022663Y012220D01*
X022650Y012121D02*
X022663Y012121D01*
X022650Y012023D02*
X022663Y012023D01*
X022650Y011924D02*
X022663Y011924D01*
X022650Y011826D02*
X022663Y011826D01*
X022663Y011727D02*
X022609Y011727D01*
X022663Y011629D02*
X021797Y011629D01*
X021699Y011530D02*
X022663Y011530D01*
X022663Y011432D02*
X021600Y011432D01*
X021502Y011333D02*
X022663Y011333D01*
X022663Y011235D02*
X021403Y011235D01*
X021305Y011136D02*
X022566Y011136D01*
X022468Y011038D02*
X021206Y011038D01*
X021195Y010939D02*
X022369Y010939D01*
X022271Y010841D02*
X021195Y010841D01*
X021195Y010742D02*
X022172Y010742D01*
X022074Y010644D02*
X021195Y010644D01*
X021195Y010545D02*
X021975Y010545D01*
X021898Y010447D02*
X021195Y010447D01*
X021195Y010348D02*
X021876Y010348D01*
X021876Y010250D02*
X021195Y010250D01*
X021195Y010151D02*
X021616Y010151D01*
X021562Y010053D02*
X021195Y010053D01*
X021195Y009954D02*
X021562Y009954D01*
X021562Y009856D02*
X021233Y009856D01*
X021332Y009757D02*
X021562Y009757D01*
X021562Y009659D02*
X021430Y009659D01*
X021529Y009560D02*
X021562Y009560D01*
X021562Y008772D02*
X020636Y008772D01*
X020735Y008674D02*
X021562Y008674D01*
X021562Y008575D02*
X020833Y008575D01*
X020932Y008477D02*
X021562Y008477D01*
X021562Y008378D02*
X021030Y008378D01*
X021129Y008280D02*
X021562Y008280D01*
X021605Y008181D02*
X021227Y008181D01*
X021326Y008083D02*
X021876Y008083D01*
X021876Y007984D02*
X021424Y007984D01*
X021699Y007886D02*
X021876Y007886D01*
X021876Y007787D02*
X021798Y007787D01*
X021935Y007393D02*
X021965Y007393D01*
X021935Y007295D02*
X022064Y007295D01*
X022162Y007196D02*
X021892Y007196D01*
X021794Y007098D02*
X022261Y007098D01*
X022359Y006999D02*
X021695Y006999D01*
X021186Y006999D02*
X018342Y006999D01*
X018440Y006901D02*
X031153Y006901D01*
X031252Y006999D02*
X025042Y006999D01*
X025140Y007098D02*
X031350Y007098D01*
X031055Y006802D02*
X030989Y006802D01*
X031609Y006310D02*
X031913Y006310D01*
X032011Y006408D02*
X031707Y006408D01*
X031806Y006507D02*
X032110Y006507D01*
X032112Y006605D02*
X031904Y006605D01*
X032003Y006704D02*
X032112Y006704D01*
X032101Y006802D02*
X032112Y006802D01*
X031814Y006211D02*
X031510Y006211D01*
X031412Y006113D02*
X031716Y006113D01*
X032422Y005325D02*
X032503Y005325D01*
X032521Y005423D02*
X032601Y005423D01*
X032619Y005522D02*
X032700Y005522D01*
X032718Y005620D02*
X032798Y005620D01*
X032816Y005719D02*
X032897Y005719D01*
X032915Y005817D02*
X032995Y005817D01*
X033013Y005916D02*
X033094Y005916D01*
X033112Y006014D02*
X033814Y006014D01*
X033913Y006113D02*
X033210Y006113D01*
X033309Y006211D02*
X036564Y006211D01*
X036564Y006113D02*
X035457Y006113D01*
X035555Y006014D02*
X036564Y006014D01*
X036564Y005916D02*
X035654Y005916D01*
X035655Y005817D02*
X036564Y005817D01*
X036564Y005719D02*
X035655Y005719D01*
X035655Y005620D02*
X036564Y005620D01*
X036564Y005522D02*
X035651Y005522D01*
X035552Y005423D02*
X036564Y005423D01*
X036564Y005325D02*
X035454Y005325D01*
X035442Y005128D02*
X036564Y005128D01*
X036564Y005226D02*
X035044Y005226D01*
X034715Y005620D02*
X034655Y005620D01*
X034655Y005719D02*
X034715Y005719D01*
X034715Y005817D02*
X034655Y005817D01*
X034654Y005916D02*
X034716Y005916D01*
X034814Y006014D02*
X034555Y006014D01*
X034457Y006113D02*
X034913Y006113D01*
X034817Y006999D02*
X036564Y006999D01*
X036564Y006901D02*
X033605Y006901D01*
X033506Y006802D02*
X036564Y006802D01*
X036564Y006704D02*
X033408Y006704D01*
X033399Y006605D02*
X036564Y006605D01*
X036564Y006507D02*
X033399Y006507D01*
X033399Y006408D02*
X036564Y006408D01*
X036564Y006310D02*
X033380Y006310D01*
X034916Y007098D02*
X036564Y007098D01*
X036564Y007196D02*
X035014Y007196D01*
X035424Y007295D02*
X036564Y007295D01*
X036564Y007393D02*
X035522Y007393D01*
X035621Y007492D02*
X036564Y007492D01*
X036564Y007590D02*
X035655Y007590D01*
X035655Y007689D02*
X036564Y007689D01*
X036564Y007787D02*
X035655Y007787D01*
X035655Y007886D02*
X036564Y007886D01*
X036564Y007984D02*
X035585Y007984D01*
X035487Y008083D02*
X036564Y008083D01*
X036564Y008181D02*
X035388Y008181D01*
X035379Y008250D02*
X035655Y008525D01*
X035655Y008915D01*
X035379Y009190D01*
X034990Y009190D01*
X034715Y008915D01*
X034715Y008525D01*
X034990Y008250D01*
X035379Y008250D01*
X035409Y008280D02*
X036564Y008280D01*
X036564Y008378D02*
X035507Y008378D01*
X035606Y008477D02*
X036564Y008477D01*
X036564Y008575D02*
X035655Y008575D01*
X035655Y008674D02*
X036564Y008674D01*
X036564Y008772D02*
X035655Y008772D01*
X035655Y008871D02*
X036564Y008871D01*
X036564Y008969D02*
X035600Y008969D01*
X035502Y009068D02*
X036564Y009068D01*
X036564Y009166D02*
X035403Y009166D01*
X034966Y009166D02*
X034403Y009166D01*
X034379Y009190D02*
X033990Y009190D01*
X033715Y008915D01*
X033715Y008525D01*
X033990Y008250D01*
X034379Y008250D01*
X034655Y008525D01*
X034655Y008915D01*
X034379Y009190D01*
X034502Y009068D02*
X034868Y009068D01*
X034769Y008969D02*
X034600Y008969D01*
X034655Y008871D02*
X034715Y008871D01*
X034715Y008772D02*
X034655Y008772D01*
X034655Y008674D02*
X034715Y008674D01*
X034715Y008575D02*
X034655Y008575D01*
X034606Y008477D02*
X034763Y008477D01*
X034862Y008378D02*
X034507Y008378D01*
X034409Y008280D02*
X034960Y008280D01*
X034981Y008181D02*
X034388Y008181D01*
X034487Y008083D02*
X034883Y008083D01*
X034784Y007984D02*
X034585Y007984D01*
X034655Y007886D02*
X034715Y007886D01*
X034715Y007787D02*
X034655Y007787D01*
X034655Y007689D02*
X034715Y007689D01*
X034701Y007590D02*
X034655Y007590D01*
X033981Y008181D02*
X033470Y008181D01*
X033511Y008280D02*
X033960Y008280D01*
X033862Y008378D02*
X033519Y008378D01*
X033519Y008477D02*
X033763Y008477D01*
X033715Y008575D02*
X033519Y008575D01*
X033519Y008674D02*
X033715Y008674D01*
X033715Y008772D02*
X033519Y008772D01*
X033519Y008871D02*
X033715Y008871D01*
X033769Y008969D02*
X033519Y008969D01*
X033519Y009068D02*
X033868Y009068D01*
X033966Y009166D02*
X033519Y009166D01*
X033519Y009265D02*
X036564Y009265D01*
X036564Y009363D02*
X033519Y009363D01*
X033519Y009462D02*
X036564Y009462D01*
X036564Y009560D02*
X033519Y009560D01*
X033519Y009659D02*
X036564Y009659D01*
X036564Y009757D02*
X033519Y009757D01*
X033519Y009856D02*
X036564Y009856D01*
X036564Y009954D02*
X033519Y009954D01*
X033519Y010053D02*
X036564Y010053D01*
X036564Y010151D02*
X033519Y010151D01*
X033519Y010250D02*
X036564Y010250D01*
X036564Y010348D02*
X035477Y010348D01*
X035379Y010250D02*
X035655Y010525D01*
X035655Y010915D01*
X035379Y011190D01*
X034990Y011190D01*
X034715Y010915D01*
X034715Y010525D01*
X034990Y010250D01*
X035379Y010250D01*
X035576Y010447D02*
X036564Y010447D01*
X036564Y010545D02*
X035655Y010545D01*
X035655Y010644D02*
X036564Y010644D01*
X036564Y010742D02*
X035655Y010742D01*
X035655Y010841D02*
X036564Y010841D01*
X036564Y010939D02*
X035630Y010939D01*
X035532Y011038D02*
X036564Y011038D01*
X036564Y011136D02*
X035433Y011136D01*
X035379Y011250D02*
X034990Y011250D01*
X034715Y011525D01*
X034715Y011915D01*
X034990Y012190D01*
X035379Y012190D01*
X035655Y011915D01*
X035655Y011525D01*
X035379Y011250D01*
X035462Y011333D02*
X036564Y011333D01*
X036564Y011235D02*
X033519Y011235D01*
X033519Y011333D02*
X033907Y011333D01*
X033808Y011432D02*
X033519Y011432D01*
X033519Y011530D02*
X033715Y011530D01*
X033715Y011629D02*
X033617Y011629D01*
X033519Y011136D02*
X033936Y011136D01*
X033990Y011190D02*
X033715Y010915D01*
X033715Y010525D01*
X033990Y010250D01*
X034379Y010250D01*
X034655Y010525D01*
X034655Y010915D01*
X034379Y011190D01*
X033990Y011190D01*
X033838Y011038D02*
X033519Y011038D01*
X033519Y010939D02*
X033739Y010939D01*
X033715Y010841D02*
X033519Y010841D01*
X033519Y010742D02*
X033715Y010742D01*
X033715Y010644D02*
X033519Y010644D01*
X033519Y010545D02*
X033715Y010545D01*
X033793Y010447D02*
X033519Y010447D01*
X033519Y010348D02*
X033892Y010348D01*
X034477Y010348D02*
X034892Y010348D01*
X034793Y010447D02*
X034576Y010447D01*
X034655Y010545D02*
X034715Y010545D01*
X034715Y010644D02*
X034655Y010644D01*
X034655Y010742D02*
X034715Y010742D01*
X034715Y010841D02*
X034655Y010841D01*
X034630Y010939D02*
X034739Y010939D01*
X034838Y011038D02*
X034532Y011038D01*
X034433Y011136D02*
X034936Y011136D01*
X034907Y011333D02*
X034462Y011333D01*
X034561Y011432D02*
X034808Y011432D01*
X034715Y011530D02*
X034655Y011530D01*
X034655Y011629D02*
X034715Y011629D01*
X034715Y011727D02*
X034655Y011727D01*
X034655Y011826D02*
X034715Y011826D01*
X034724Y011924D02*
X034645Y011924D01*
X034547Y012023D02*
X034823Y012023D01*
X034921Y012121D02*
X034448Y012121D01*
X034447Y012318D02*
X034746Y012318D01*
X034715Y012350D02*
X034814Y012250D01*
X035555Y012250D01*
X035655Y012350D01*
X035655Y013090D01*
X035555Y013190D01*
X034814Y013190D01*
X034715Y013090D01*
X034715Y012350D01*
X034715Y012417D02*
X034546Y012417D01*
X034644Y012515D02*
X034715Y012515D01*
X034715Y012614D02*
X034655Y012614D01*
X034655Y012712D02*
X034715Y012712D01*
X034715Y012811D02*
X034655Y012811D01*
X034655Y012909D02*
X034715Y012909D01*
X034715Y013008D02*
X034562Y013008D01*
X034555Y013106D02*
X034730Y013106D01*
X034555Y013205D02*
X036564Y013205D01*
X036564Y013303D02*
X034555Y013303D01*
X034555Y013402D02*
X036564Y013402D01*
X036564Y013500D02*
X034555Y013500D01*
X034555Y013599D02*
X036564Y013599D01*
X036564Y013697D02*
X034555Y013697D01*
X034555Y013796D02*
X036564Y013796D01*
X036564Y013894D02*
X034555Y013894D01*
X034567Y013993D02*
X036564Y013993D01*
X036564Y014091D02*
X034666Y014091D01*
X034764Y014190D02*
X036564Y014190D01*
X036564Y014288D02*
X034848Y014288D01*
X034888Y014387D02*
X036564Y014387D01*
X036564Y014485D02*
X034893Y014485D01*
X034893Y014584D02*
X036564Y014584D01*
X036564Y014682D02*
X034893Y014682D01*
X034893Y014781D02*
X036564Y014781D01*
X036564Y014879D02*
X034893Y014879D01*
X034893Y014978D02*
X036564Y014978D01*
X036564Y015076D02*
X034893Y015076D01*
X034893Y015175D02*
X036564Y015175D01*
X036564Y015273D02*
X034893Y015273D01*
X034893Y015372D02*
X036564Y015372D01*
X036564Y015470D02*
X034924Y015470D01*
X034965Y015569D02*
X036564Y015569D01*
X036564Y015667D02*
X034980Y015667D01*
X034980Y015766D02*
X036564Y015766D01*
X036564Y015864D02*
X034980Y015864D01*
X034980Y015963D02*
X036564Y015963D01*
X036564Y016061D02*
X034980Y016061D01*
X034980Y016160D02*
X036564Y016160D01*
X036564Y016258D02*
X034980Y016258D01*
X034980Y016357D02*
X036564Y016357D01*
X036564Y016455D02*
X034942Y016455D01*
X034887Y016554D02*
X036564Y016554D01*
X036564Y016652D02*
X034788Y016652D01*
X034258Y016652D02*
X033804Y016652D01*
X033903Y016554D02*
X034160Y016554D01*
X034105Y016455D02*
X033957Y016455D01*
X033996Y016357D02*
X034066Y016357D01*
X034066Y016258D02*
X033996Y016258D01*
X033996Y016160D02*
X034066Y016160D01*
X034066Y016061D02*
X033996Y016061D01*
X033996Y015963D02*
X034066Y015963D01*
X034066Y015864D02*
X033996Y015864D01*
X033996Y015766D02*
X034066Y015766D01*
X034066Y015667D02*
X033996Y015667D01*
X033981Y015569D02*
X034082Y015569D01*
X034123Y015470D02*
X033940Y015470D01*
X033860Y015372D02*
X034153Y015372D01*
X034153Y015273D02*
X033789Y015273D01*
X033789Y015175D02*
X034153Y015175D01*
X034153Y015076D02*
X033789Y015076D01*
X033774Y014978D02*
X034153Y014978D01*
X034153Y014879D02*
X033709Y014879D01*
X033611Y014781D02*
X034153Y014781D01*
X034153Y014682D02*
X033512Y014682D01*
X033414Y014584D02*
X034112Y014584D01*
X034013Y014485D02*
X033315Y014485D01*
X033217Y014387D02*
X033915Y014387D01*
X033848Y014288D02*
X033118Y014288D01*
X033020Y014190D02*
X033815Y014190D01*
X033815Y014091D02*
X032921Y014091D01*
X032652Y014529D02*
X031918Y014529D01*
X031827Y014491D01*
X031756Y014421D01*
X031363Y014027D01*
X031324Y013935D01*
X031324Y011233D01*
X030645Y010554D01*
X030575Y010484D01*
X030537Y010392D01*
X030537Y010197D01*
X030323Y010197D01*
X030250Y010124D01*
X030250Y010475D01*
X030999Y011224D01*
X031037Y011316D01*
X031037Y011668D01*
X031212Y011668D01*
X031311Y011768D01*
X031311Y012539D01*
X031212Y012638D01*
X030362Y012638D01*
X030263Y012539D01*
X030263Y011768D01*
X030362Y011668D01*
X030537Y011668D01*
X030537Y011469D01*
X029858Y010790D01*
X029788Y010720D01*
X029750Y010628D01*
X029750Y010124D01*
X029676Y010197D01*
X029462Y010197D01*
X029462Y010632D01*
X030212Y011382D01*
X030250Y011473D01*
X030250Y013782D01*
X031284Y014817D01*
X032412Y014817D01*
X032503Y014855D01*
X032893Y015244D01*
X032921Y015273D01*
X033011Y015309D01*
X033139Y015438D01*
X033145Y015453D01*
X033152Y015438D01*
X033280Y015309D01*
X033289Y015306D01*
X033289Y015166D01*
X032652Y014529D01*
X032707Y014584D02*
X031051Y014584D01*
X030953Y014485D02*
X031821Y014485D01*
X031722Y014387D02*
X030854Y014387D01*
X030756Y014288D02*
X031624Y014288D01*
X031525Y014190D02*
X030657Y014190D01*
X030559Y014091D02*
X031427Y014091D01*
X031348Y013993D02*
X030460Y013993D01*
X030362Y013894D02*
X031324Y013894D01*
X031324Y013796D02*
X030263Y013796D01*
X030250Y013697D02*
X031324Y013697D01*
X031324Y013599D02*
X030250Y013599D01*
X030250Y013500D02*
X031324Y013500D01*
X031324Y013402D02*
X030250Y013402D01*
X030250Y013303D02*
X031324Y013303D01*
X031324Y013205D02*
X030250Y013205D01*
X030250Y013106D02*
X031324Y013106D01*
X031324Y013008D02*
X030250Y013008D01*
X030250Y012909D02*
X031324Y012909D01*
X031324Y012811D02*
X030250Y012811D01*
X030250Y012712D02*
X031324Y012712D01*
X031324Y012614D02*
X031236Y012614D01*
X031311Y012515D02*
X031324Y012515D01*
X031311Y012417D02*
X031324Y012417D01*
X031311Y012318D02*
X031324Y012318D01*
X031311Y012220D02*
X031324Y012220D01*
X031311Y012121D02*
X031324Y012121D01*
X031311Y012023D02*
X031324Y012023D01*
X031311Y011924D02*
X031324Y011924D01*
X031311Y011826D02*
X031324Y011826D01*
X031324Y011727D02*
X031271Y011727D01*
X031324Y011629D02*
X031037Y011629D01*
X031037Y011530D02*
X031324Y011530D01*
X031324Y011432D02*
X031037Y011432D01*
X031037Y011333D02*
X031324Y011333D01*
X031324Y011235D02*
X031003Y011235D01*
X030911Y011136D02*
X031228Y011136D01*
X031129Y011038D02*
X030813Y011038D01*
X030714Y010939D02*
X031031Y010939D01*
X030932Y010841D02*
X030616Y010841D01*
X030517Y010742D02*
X030834Y010742D01*
X030735Y010644D02*
X030419Y010644D01*
X030320Y010545D02*
X030637Y010545D01*
X030560Y010447D02*
X030250Y010447D01*
X030250Y010348D02*
X030537Y010348D01*
X030537Y010250D02*
X030250Y010250D01*
X030250Y010151D02*
X030277Y010151D01*
X029750Y010151D02*
X029722Y010151D01*
X029750Y010250D02*
X029462Y010250D01*
X029462Y010348D02*
X029750Y010348D01*
X029750Y010447D02*
X029462Y010447D01*
X029462Y010545D02*
X029750Y010545D01*
X029756Y010644D02*
X029474Y010644D01*
X029572Y010742D02*
X029810Y010742D01*
X029908Y010841D02*
X029671Y010841D01*
X029769Y010939D02*
X030007Y010939D01*
X030105Y011038D02*
X029868Y011038D01*
X029966Y011136D02*
X030204Y011136D01*
X030302Y011235D02*
X030065Y011235D01*
X030163Y011333D02*
X030401Y011333D01*
X030499Y011432D02*
X030232Y011432D01*
X030250Y011530D02*
X030537Y011530D01*
X030537Y011629D02*
X030250Y011629D01*
X030250Y011727D02*
X030303Y011727D01*
X030263Y011826D02*
X030250Y011826D01*
X030250Y011924D02*
X030263Y011924D01*
X030250Y012023D02*
X030263Y012023D01*
X030250Y012121D02*
X030263Y012121D01*
X030250Y012220D02*
X030263Y012220D01*
X030250Y012318D02*
X030263Y012318D01*
X030250Y012417D02*
X030263Y012417D01*
X030250Y012515D02*
X030263Y012515D01*
X030250Y012614D02*
X030338Y012614D01*
X029750Y012515D02*
X029737Y012515D01*
X029737Y012417D02*
X029750Y012417D01*
X029737Y012318D02*
X029750Y012318D01*
X029737Y012220D02*
X029750Y012220D01*
X029737Y012121D02*
X029750Y012121D01*
X029737Y012023D02*
X029750Y012023D01*
X029737Y011924D02*
X029750Y011924D01*
X029737Y011826D02*
X029750Y011826D01*
X029750Y011727D02*
X029696Y011727D01*
X029750Y011629D02*
X029278Y011629D01*
X029179Y011530D02*
X029653Y011530D01*
X029555Y011432D02*
X029081Y011432D01*
X028982Y011333D02*
X029456Y011333D01*
X029358Y011235D02*
X028214Y011235D01*
X028214Y011136D02*
X029259Y011136D01*
X029161Y011038D02*
X028264Y011038D01*
X028354Y010939D02*
X029062Y010939D01*
X028985Y010841D02*
X028444Y010841D01*
X028534Y010742D02*
X028962Y010742D01*
X028962Y010644D02*
X028624Y010644D01*
X028714Y010545D02*
X028962Y010545D01*
X028962Y010447D02*
X028802Y010447D01*
X028834Y010348D02*
X028962Y010348D01*
X028962Y010250D02*
X028832Y010250D01*
X027856Y010742D02*
X026423Y010742D01*
X026487Y010644D02*
X026324Y010644D01*
X026388Y010545D02*
X026226Y010545D01*
X026207Y010447D02*
X026127Y010447D01*
X026109Y010348D02*
X026029Y010348D01*
X026010Y010250D02*
X025930Y010250D01*
X025912Y010151D02*
X025832Y010151D01*
X025835Y010053D02*
X025733Y010053D01*
X025813Y009954D02*
X025635Y009954D01*
X025536Y009856D02*
X025813Y009856D01*
X025813Y009757D02*
X025438Y009757D01*
X025339Y009659D02*
X025813Y009659D01*
X025813Y009560D02*
X025241Y009560D01*
X025142Y009462D02*
X025813Y009462D01*
X025813Y009363D02*
X025132Y009363D01*
X025132Y009265D02*
X025813Y009265D01*
X025813Y009166D02*
X025132Y009166D01*
X025132Y009068D02*
X025813Y009068D01*
X025813Y008969D02*
X025132Y008969D01*
X025130Y008871D02*
X025813Y008871D01*
X025813Y008772D02*
X025082Y008772D01*
X024984Y008674D02*
X025813Y008674D01*
X025813Y008575D02*
X024885Y008575D01*
X024787Y008477D02*
X025812Y008477D01*
X025714Y008378D02*
X024660Y008378D01*
X024264Y008280D02*
X025615Y008280D01*
X025517Y008181D02*
X024221Y008181D01*
X024926Y007590D02*
X022475Y007590D01*
X022377Y007689D02*
X025024Y007689D01*
X025123Y007787D02*
X022376Y007787D01*
X022376Y007886D02*
X025221Y007886D01*
X025320Y007984D02*
X022376Y007984D01*
X022376Y008083D02*
X025418Y008083D01*
X024827Y007492D02*
X022574Y007492D01*
X022646Y008181D02*
X023180Y008181D01*
X023137Y008280D02*
X022689Y008280D01*
X022689Y008378D02*
X023137Y008378D01*
X023137Y008477D02*
X022689Y008477D01*
X022689Y008575D02*
X023137Y008575D01*
X023047Y008674D02*
X022689Y008674D01*
X022689Y008772D02*
X022948Y008772D01*
X022663Y009265D02*
X022627Y009265D01*
X023163Y010124D02*
X023163Y010396D01*
X023912Y011145D01*
X023950Y011237D01*
X023950Y011668D01*
X024125Y011668D01*
X024225Y011768D01*
X024225Y012539D01*
X024125Y012638D01*
X023276Y012638D01*
X023176Y012539D01*
X023176Y011768D01*
X023276Y011668D01*
X023450Y011668D01*
X023450Y011391D01*
X023163Y011103D01*
X023163Y013782D01*
X023804Y014423D01*
X024931Y014423D01*
X025023Y014461D01*
X025786Y015224D01*
X025867Y015224D01*
X024276Y013633D01*
X024238Y013541D01*
X024238Y011233D01*
X023489Y010484D01*
X023450Y010392D01*
X023450Y010197D01*
X023236Y010197D01*
X023163Y010124D01*
X023163Y010151D02*
X023190Y010151D01*
X023163Y010250D02*
X023450Y010250D01*
X023450Y010348D02*
X023163Y010348D01*
X023214Y010447D02*
X023473Y010447D01*
X023550Y010545D02*
X023312Y010545D01*
X023411Y010644D02*
X023648Y010644D01*
X023747Y010742D02*
X023509Y010742D01*
X023608Y010841D02*
X023845Y010841D01*
X023944Y010939D02*
X023706Y010939D01*
X023805Y011038D02*
X024042Y011038D01*
X024141Y011136D02*
X023903Y011136D01*
X023949Y011235D02*
X024238Y011235D01*
X024238Y011333D02*
X023950Y011333D01*
X023950Y011432D02*
X024238Y011432D01*
X024238Y011530D02*
X023950Y011530D01*
X023950Y011629D02*
X024238Y011629D01*
X024238Y011727D02*
X024184Y011727D01*
X024225Y011826D02*
X024238Y011826D01*
X024225Y011924D02*
X024238Y011924D01*
X024225Y012023D02*
X024238Y012023D01*
X024225Y012121D02*
X024238Y012121D01*
X024225Y012220D02*
X024238Y012220D01*
X024225Y012318D02*
X024238Y012318D01*
X024225Y012417D02*
X024238Y012417D01*
X024225Y012515D02*
X024238Y012515D01*
X024238Y012614D02*
X024150Y012614D01*
X024238Y012712D02*
X023163Y012712D01*
X023163Y012614D02*
X023251Y012614D01*
X023176Y012515D02*
X023163Y012515D01*
X023163Y012417D02*
X023176Y012417D01*
X023163Y012318D02*
X023176Y012318D01*
X023163Y012220D02*
X023176Y012220D01*
X023163Y012121D02*
X023176Y012121D01*
X023163Y012023D02*
X023176Y012023D01*
X023163Y011924D02*
X023176Y011924D01*
X023163Y011826D02*
X023176Y011826D01*
X023163Y011727D02*
X023217Y011727D01*
X023163Y011629D02*
X023450Y011629D01*
X023450Y011530D02*
X023163Y011530D01*
X023163Y011432D02*
X023450Y011432D01*
X023393Y011333D02*
X023163Y011333D01*
X023163Y011235D02*
X023295Y011235D01*
X023196Y011136D02*
X023163Y011136D01*
X025759Y011727D02*
X027882Y011727D01*
X026281Y012614D02*
X025724Y012614D01*
X024238Y012811D02*
X023163Y012811D01*
X023163Y012909D02*
X024238Y012909D01*
X024238Y013008D02*
X023163Y013008D01*
X023163Y013106D02*
X024238Y013106D01*
X024238Y013205D02*
X023163Y013205D01*
X023163Y013303D02*
X024238Y013303D01*
X024238Y013402D02*
X023163Y013402D01*
X023163Y013500D02*
X024238Y013500D01*
X024262Y013599D02*
X023163Y013599D01*
X023163Y013697D02*
X024340Y013697D01*
X024438Y013796D02*
X023177Y013796D01*
X023275Y013894D02*
X024537Y013894D01*
X024635Y013993D02*
X023374Y013993D01*
X023472Y014091D02*
X024734Y014091D01*
X024832Y014190D02*
X023571Y014190D01*
X023669Y014288D02*
X024931Y014288D01*
X025029Y014387D02*
X023768Y014387D01*
X023455Y014781D02*
X020527Y014781D01*
X020527Y014879D02*
X023553Y014879D01*
X023356Y014682D02*
X020527Y014682D01*
X020527Y014584D02*
X023258Y014584D01*
X023159Y014485D02*
X020527Y014485D01*
X020527Y014387D02*
X023061Y014387D01*
X022962Y014288D02*
X020527Y014288D01*
X020527Y014190D02*
X022864Y014190D01*
X022765Y014091D02*
X020527Y014091D01*
X020527Y013993D02*
X022687Y013993D01*
X022663Y013894D02*
X020527Y013894D01*
X020527Y013796D02*
X022663Y013796D01*
X022663Y013697D02*
X020625Y013697D01*
X020681Y013599D02*
X022663Y013599D01*
X022663Y013500D02*
X020681Y013500D01*
X020681Y013402D02*
X022663Y013402D01*
X022663Y013303D02*
X020681Y013303D01*
X020681Y013205D02*
X022663Y013205D01*
X022663Y013106D02*
X020681Y013106D01*
X020681Y013008D02*
X022663Y013008D01*
X022663Y012909D02*
X020681Y012909D01*
X020622Y012811D02*
X022663Y012811D01*
X025047Y014485D02*
X025128Y014485D01*
X025146Y014584D02*
X025226Y014584D01*
X025244Y014682D02*
X025325Y014682D01*
X025343Y014781D02*
X025423Y014781D01*
X025441Y014879D02*
X025522Y014879D01*
X025540Y014978D02*
X025620Y014978D01*
X025638Y015076D02*
X025719Y015076D01*
X025737Y015175D02*
X025817Y015175D01*
X025325Y015470D02*
X020527Y015470D01*
X020527Y015372D02*
X025227Y015372D01*
X025128Y015273D02*
X020527Y015273D01*
X020527Y015175D02*
X025030Y015175D01*
X024931Y015076D02*
X020527Y015076D01*
X020527Y014978D02*
X024833Y014978D01*
X025378Y015569D02*
X020527Y015569D01*
X020527Y015667D02*
X025369Y015667D01*
X025369Y015766D02*
X020527Y015766D01*
X020527Y015864D02*
X025369Y015864D01*
X025369Y015963D02*
X020527Y015963D01*
X020527Y016061D02*
X025369Y016061D01*
X025369Y016160D02*
X020527Y016160D01*
X020527Y016258D02*
X025369Y016258D01*
X025374Y016357D02*
X020527Y016357D01*
X020527Y016455D02*
X025415Y016455D01*
X025479Y016554D02*
X020527Y016554D01*
X020527Y016652D02*
X025591Y016652D01*
X026062Y016652D02*
X026378Y016652D01*
X026266Y016554D02*
X026174Y016554D01*
X031150Y014682D02*
X032805Y014682D01*
X032904Y014781D02*
X031248Y014781D01*
X032035Y013993D02*
X033815Y013993D01*
X033815Y013894D02*
X031937Y013894D01*
X031838Y013796D02*
X033815Y013796D01*
X033815Y013697D02*
X031824Y013697D01*
X031824Y013599D02*
X033815Y013599D01*
X033815Y013500D02*
X031824Y013500D01*
X031824Y013402D02*
X033815Y013402D01*
X033815Y013303D02*
X031824Y013303D01*
X031824Y013205D02*
X033815Y013205D01*
X033815Y013106D02*
X031824Y013106D01*
X031824Y013008D02*
X033808Y013008D01*
X033715Y012909D02*
X031824Y012909D01*
X031824Y012811D02*
X033715Y012811D01*
X033654Y012712D02*
X031824Y012712D01*
X031824Y012614D02*
X031913Y012614D01*
X031838Y012515D02*
X031824Y012515D01*
X031824Y012417D02*
X031838Y012417D01*
X031824Y012318D02*
X031838Y012318D01*
X031824Y012220D02*
X031838Y012220D01*
X031824Y012121D02*
X031838Y012121D01*
X031824Y012023D02*
X031838Y012023D01*
X031824Y011924D02*
X031838Y011924D01*
X031824Y011826D02*
X031838Y011826D01*
X031824Y011727D02*
X031878Y011727D01*
X031824Y011629D02*
X032599Y011629D01*
X032698Y011530D02*
X031824Y011530D01*
X031824Y011432D02*
X032779Y011432D01*
X032779Y011333D02*
X031824Y011333D01*
X031824Y011235D02*
X032779Y011235D01*
X032779Y011136D02*
X031824Y011136D01*
X031807Y011038D02*
X032779Y011038D01*
X032779Y010939D02*
X031738Y010939D01*
X031639Y010841D02*
X032779Y010841D01*
X032779Y010742D02*
X031541Y010742D01*
X031442Y010644D02*
X032779Y010644D01*
X032779Y010545D02*
X031344Y010545D01*
X031245Y010447D02*
X032779Y010447D01*
X032779Y010348D02*
X031147Y010348D01*
X031048Y010250D02*
X032779Y010250D01*
X032779Y010151D02*
X031297Y010151D01*
X031351Y010053D02*
X032779Y010053D01*
X032779Y009954D02*
X031351Y009954D01*
X031351Y009856D02*
X032779Y009856D01*
X032779Y009757D02*
X031351Y009757D01*
X031351Y009659D02*
X032779Y009659D01*
X032779Y009560D02*
X031351Y009560D01*
X031351Y009462D02*
X032779Y009462D01*
X032779Y009363D02*
X031351Y009363D01*
X031289Y009265D02*
X032779Y009265D01*
X032779Y009166D02*
X030250Y009166D01*
X030250Y009068D02*
X030296Y009068D01*
X030286Y009265D02*
X030250Y009265D01*
X031278Y009068D02*
X032779Y009068D01*
X032779Y008969D02*
X031351Y008969D01*
X031351Y008871D02*
X032779Y008871D01*
X032779Y008772D02*
X031351Y008772D01*
X031351Y008674D02*
X032779Y008674D01*
X032779Y008575D02*
X031351Y008575D01*
X031351Y008477D02*
X032729Y008477D01*
X032631Y008378D02*
X031351Y008378D01*
X031351Y008280D02*
X032532Y008280D01*
X032434Y008181D02*
X031307Y008181D01*
X030850Y008083D02*
X032335Y008083D01*
X032237Y007984D02*
X030751Y007984D01*
X030653Y007886D02*
X032138Y007886D01*
X032040Y007787D02*
X030554Y007787D01*
X028017Y008772D02*
X027945Y008772D01*
X026459Y009856D02*
X026323Y009856D01*
X024632Y009068D02*
X024192Y009068D01*
X024264Y008969D02*
X024572Y008969D01*
X024474Y008871D02*
X024264Y008871D01*
X025074Y006802D02*
X018539Y006802D01*
X018637Y006704D02*
X024975Y006704D01*
X024921Y006605D02*
X018736Y006605D01*
X018834Y006507D02*
X024880Y006507D01*
X024878Y006408D02*
X018933Y006408D01*
X019031Y006310D02*
X024878Y006310D01*
X024918Y006211D02*
X019130Y006211D01*
X019228Y006113D02*
X024969Y006113D01*
X025068Y006014D02*
X019327Y006014D01*
X018243Y007098D02*
X021088Y007098D01*
X020989Y007196D02*
X018145Y007196D01*
X018046Y007295D02*
X020946Y007295D01*
X020946Y007393D02*
X017948Y007393D01*
X017849Y007492D02*
X020870Y007492D01*
X020772Y007590D02*
X017751Y007590D01*
X017652Y007689D02*
X020673Y007689D01*
X020575Y007787D02*
X017554Y007787D01*
X017455Y007886D02*
X020476Y007886D01*
X020378Y007984D02*
X017357Y007984D01*
X017258Y008280D02*
X020082Y008280D01*
X019984Y008378D02*
X017258Y008378D01*
X017258Y008477D02*
X019885Y008477D01*
X019787Y008575D02*
X017258Y008575D01*
X017258Y008674D02*
X019688Y008674D01*
X019590Y008772D02*
X017258Y008772D01*
X017258Y008871D02*
X019491Y008871D01*
X019393Y008969D02*
X017258Y008969D01*
X017258Y009068D02*
X019294Y009068D01*
X019196Y009166D02*
X017258Y009166D01*
X017258Y009265D02*
X019097Y009265D01*
X019032Y009363D02*
X017258Y009363D01*
X017258Y009462D02*
X019000Y009462D01*
X019000Y009560D02*
X017258Y009560D01*
X017258Y009659D02*
X019000Y009659D01*
X019000Y009757D02*
X017258Y009757D01*
X017258Y009856D02*
X019000Y009856D01*
X019000Y009954D02*
X017258Y009954D01*
X017258Y010053D02*
X019000Y010053D01*
X019000Y010151D02*
X017258Y010151D01*
X017258Y010250D02*
X019000Y010250D01*
X019000Y010348D02*
X017258Y010348D01*
X017258Y010447D02*
X019000Y010447D01*
X019000Y010545D02*
X017258Y010545D01*
X017258Y010644D02*
X019000Y010644D01*
X019000Y010742D02*
X017258Y010742D01*
X017258Y010841D02*
X019000Y010841D01*
X019000Y010939D02*
X017258Y010939D01*
X017258Y011038D02*
X019000Y011038D01*
X019000Y011136D02*
X017258Y011136D01*
X017258Y011235D02*
X019000Y011235D01*
X019000Y011333D02*
X017258Y011333D01*
X017258Y011432D02*
X019000Y011432D01*
X019000Y011530D02*
X017258Y011530D01*
X017258Y011629D02*
X019000Y011629D01*
X019000Y011727D02*
X017531Y011727D01*
X017571Y011826D02*
X019000Y011826D01*
X019000Y011924D02*
X017571Y011924D01*
X017571Y012023D02*
X019000Y012023D01*
X019000Y012121D02*
X017571Y012121D01*
X017571Y012220D02*
X019000Y012220D01*
X019000Y012318D02*
X017571Y012318D01*
X017571Y012417D02*
X019000Y012417D01*
X019000Y012515D02*
X017571Y012515D01*
X017496Y012614D02*
X019000Y012614D01*
X019000Y012712D02*
X013321Y012712D01*
X013321Y012754D02*
X013282Y012846D01*
X013212Y012916D01*
X012807Y013321D01*
X012807Y013641D01*
X012708Y013740D01*
X011994Y013740D01*
X010958Y014776D01*
X010958Y016376D01*
X010920Y016468D01*
X008558Y018830D01*
X008488Y018901D01*
X008396Y018939D01*
X007194Y018939D01*
X007102Y018901D01*
X006874Y018673D01*
X006836Y018581D01*
X006836Y018563D01*
X006597Y018324D01*
X006597Y017951D01*
X006633Y017915D01*
X006437Y017915D01*
X006473Y017951D01*
X006473Y018324D01*
X006210Y018587D01*
X005966Y018587D01*
X005732Y018822D01*
X005640Y018860D01*
X004753Y018860D01*
X004661Y018822D01*
X004591Y018751D01*
X004268Y018428D01*
X004197Y018358D01*
X004159Y018266D01*
X004159Y016355D01*
X004197Y016264D01*
X004268Y016193D01*
X004748Y015712D01*
X004819Y015642D01*
X004911Y015604D01*
X006498Y015604D01*
X007189Y014913D01*
X007189Y014879D02*
X006585Y014879D01*
X006585Y014781D02*
X007189Y014781D01*
X007189Y014682D02*
X006585Y014682D01*
X006585Y014584D02*
X007189Y014584D01*
X007189Y014485D02*
X006585Y014485D01*
X006585Y014387D02*
X007189Y014387D01*
X007215Y014288D02*
X006585Y014288D01*
X006585Y014190D02*
X007277Y014190D01*
X007309Y014091D02*
X006585Y014091D01*
X006585Y013993D02*
X007309Y013993D01*
X007309Y013894D02*
X006585Y013894D01*
X006585Y013796D02*
X007309Y013796D01*
X007091Y013697D02*
X006585Y013697D01*
X006585Y013599D02*
X007034Y013599D01*
X007034Y013500D02*
X006585Y013500D01*
X006585Y013402D02*
X007034Y013402D01*
X007034Y013303D02*
X006585Y013303D01*
X006585Y013205D02*
X007034Y013205D01*
X007034Y013106D02*
X006585Y013106D01*
X006585Y013008D02*
X007034Y013008D01*
X007034Y012909D02*
X006585Y012909D01*
X006585Y012811D02*
X007094Y012811D01*
X006585Y012712D02*
X007985Y012712D01*
X008083Y012614D02*
X006585Y012614D01*
X006585Y012515D02*
X008096Y012515D01*
X008096Y012417D02*
X006585Y012417D01*
X006585Y012318D02*
X008096Y012318D01*
X008096Y012220D02*
X006585Y012220D01*
X006585Y012121D02*
X008096Y012121D01*
X008096Y012023D02*
X006585Y012023D01*
X006585Y011924D02*
X008096Y011924D01*
X008096Y011826D02*
X006585Y011826D01*
X006585Y011727D02*
X008096Y011727D01*
X008097Y011629D02*
X006585Y011629D01*
X006585Y011530D02*
X008143Y011530D01*
X008242Y011432D02*
X006585Y011432D01*
X006585Y011333D02*
X008340Y011333D01*
X008439Y011235D02*
X006585Y011235D01*
X006585Y011136D02*
X008537Y011136D01*
X008636Y011038D02*
X006585Y011038D01*
X006585Y010939D02*
X008734Y010939D01*
X009001Y011380D02*
X008596Y011784D01*
X008596Y012571D01*
X009207Y012571D01*
X009343Y012627D01*
X009447Y012731D01*
X009464Y012771D01*
X009558Y012771D01*
X009658Y012870D01*
X009658Y013480D01*
X010094Y013044D01*
X010184Y013006D01*
X010184Y012870D01*
X010284Y012771D01*
X011076Y012771D01*
X011246Y012601D01*
X011246Y011473D01*
X011284Y011382D01*
X012033Y010632D01*
X012033Y010158D01*
X012031Y010160D01*
X010850Y011341D01*
X010758Y011380D01*
X009001Y011380D01*
X008949Y011432D02*
X011263Y011432D01*
X011246Y011530D02*
X008850Y011530D01*
X008752Y011629D02*
X011246Y011629D01*
X011246Y011727D02*
X008653Y011727D01*
X008596Y011826D02*
X011246Y011826D01*
X011246Y011924D02*
X008596Y011924D01*
X008596Y012023D02*
X011246Y012023D01*
X011246Y012121D02*
X008596Y012121D01*
X008596Y012220D02*
X011246Y012220D01*
X011246Y012318D02*
X008596Y012318D01*
X008596Y012417D02*
X011246Y012417D01*
X011246Y012515D02*
X008596Y012515D01*
X009311Y012614D02*
X011233Y012614D01*
X011134Y012712D02*
X009428Y012712D01*
X009598Y012811D02*
X010244Y012811D01*
X010184Y012909D02*
X009658Y012909D01*
X009658Y013008D02*
X010181Y013008D01*
X010032Y013106D02*
X009658Y013106D01*
X009658Y013205D02*
X009933Y013205D01*
X009835Y013303D02*
X009658Y013303D01*
X009658Y013402D02*
X009736Y013402D01*
X010049Y013796D02*
X011232Y013796D01*
X011176Y013697D02*
X011330Y013697D01*
X011233Y013641D02*
X011133Y013740D01*
X010284Y013740D01*
X010194Y013651D01*
X009777Y014068D01*
X009777Y015116D01*
X009739Y015208D01*
X008675Y016272D01*
X008675Y017557D01*
X008637Y017649D01*
X008566Y017719D01*
X008479Y017807D01*
X008409Y017877D01*
X008317Y017915D01*
X007461Y017915D01*
X007497Y017951D01*
X007497Y018324D01*
X007382Y018439D01*
X008243Y018439D01*
X010458Y016223D01*
X010458Y014623D01*
X010496Y014531D01*
X010567Y014461D01*
X011700Y013328D01*
X011718Y013303D01*
X011250Y013303D01*
X011233Y013321D02*
X011233Y013641D01*
X011233Y013599D02*
X011429Y013599D01*
X011527Y013500D02*
X011233Y013500D01*
X011233Y013402D02*
X011626Y013402D01*
X011718Y013303D02*
X011734Y013293D01*
X011748Y013280D01*
X011759Y013275D01*
X011759Y012870D01*
X011858Y012771D01*
X012651Y012771D01*
X012821Y012601D01*
X012821Y008977D01*
X012533Y009265D01*
X012821Y009265D01*
X012821Y009363D02*
X012533Y009363D01*
X012533Y009265D02*
X012533Y010786D01*
X012495Y010877D01*
X012425Y010948D01*
X011746Y011627D01*
X011746Y012754D01*
X011708Y012846D01*
X011637Y012916D01*
X011233Y013321D01*
X011349Y013205D02*
X011759Y013205D01*
X011759Y013106D02*
X011447Y013106D01*
X011546Y013008D02*
X011759Y013008D01*
X011759Y012909D02*
X011644Y012909D01*
X011722Y012811D02*
X011818Y012811D01*
X011746Y012712D02*
X012709Y012712D01*
X012808Y012614D02*
X011746Y012614D01*
X011746Y012515D02*
X012821Y012515D01*
X012821Y012417D02*
X011746Y012417D01*
X011746Y012318D02*
X012821Y012318D01*
X012821Y012220D02*
X011746Y012220D01*
X011746Y012121D02*
X012821Y012121D01*
X012821Y012023D02*
X011746Y012023D01*
X011746Y011924D02*
X012821Y011924D01*
X012821Y011826D02*
X011746Y011826D01*
X011746Y011727D02*
X012821Y011727D01*
X012821Y011629D02*
X011746Y011629D01*
X011842Y011530D02*
X012821Y011530D01*
X012821Y011432D02*
X011941Y011432D01*
X012039Y011333D02*
X012821Y011333D01*
X012821Y011235D02*
X012138Y011235D01*
X012236Y011136D02*
X012821Y011136D01*
X012821Y011038D02*
X012335Y011038D01*
X012433Y010939D02*
X012821Y010939D01*
X012821Y010841D02*
X012510Y010841D01*
X012533Y010742D02*
X012821Y010742D01*
X012821Y010644D02*
X012533Y010644D01*
X012533Y010545D02*
X012821Y010545D01*
X012821Y010447D02*
X012533Y010447D01*
X012533Y010348D02*
X012821Y010348D01*
X012821Y010250D02*
X012533Y010250D01*
X012533Y010151D02*
X012821Y010151D01*
X012821Y010053D02*
X012533Y010053D01*
X012533Y009954D02*
X012821Y009954D01*
X012821Y009856D02*
X012533Y009856D01*
X012533Y009757D02*
X012821Y009757D01*
X012821Y009659D02*
X012533Y009659D01*
X012533Y009560D02*
X012821Y009560D01*
X012821Y009462D02*
X012533Y009462D01*
X012632Y009166D02*
X012821Y009166D01*
X012821Y009068D02*
X012730Y009068D01*
X013321Y009068D02*
X015201Y009068D01*
X015183Y009166D02*
X013321Y009166D01*
X013321Y009265D02*
X015183Y009265D01*
X015183Y009363D02*
X013321Y009363D01*
X013321Y009462D02*
X015183Y009462D01*
X015183Y009560D02*
X013321Y009560D01*
X013321Y009659D02*
X015183Y009659D01*
X015183Y009757D02*
X013321Y009757D01*
X013321Y009856D02*
X015183Y009856D01*
X015183Y009954D02*
X013321Y009954D01*
X013321Y010053D02*
X015183Y010053D01*
X015183Y010151D02*
X013321Y010151D01*
X013321Y010250D02*
X015183Y010250D01*
X015183Y010348D02*
X013321Y010348D01*
X013321Y010447D02*
X015183Y010447D01*
X015183Y010545D02*
X013321Y010545D01*
X013321Y010644D02*
X015183Y010644D01*
X015183Y010742D02*
X013321Y010742D01*
X013321Y010841D02*
X015183Y010841D01*
X015183Y010939D02*
X013321Y010939D01*
X013321Y011038D02*
X015183Y011038D01*
X015183Y011136D02*
X013321Y011136D01*
X013321Y011235D02*
X015183Y011235D01*
X015183Y011333D02*
X013321Y011333D01*
X013321Y011432D02*
X015183Y011432D01*
X015183Y011530D02*
X013321Y011530D01*
X013321Y011629D02*
X015183Y011629D01*
X014910Y011727D02*
X013321Y011727D01*
X013321Y011826D02*
X014869Y011826D01*
X014869Y011924D02*
X013321Y011924D01*
X013321Y012023D02*
X014869Y012023D01*
X014869Y012121D02*
X013321Y012121D01*
X013321Y012220D02*
X014869Y012220D01*
X014869Y012318D02*
X013321Y012318D01*
X013321Y012417D02*
X014869Y012417D01*
X014869Y012515D02*
X013321Y012515D01*
X013321Y012614D02*
X014944Y012614D01*
X014969Y012771D02*
X015897Y012771D01*
X015996Y012870D01*
X015996Y013641D01*
X015897Y013740D01*
X015683Y013740D01*
X015683Y016709D01*
X015686Y016747D01*
X015683Y016758D01*
X015683Y016770D01*
X015668Y016805D01*
X015657Y016842D01*
X015649Y016851D01*
X015645Y016862D01*
X015618Y016889D01*
X015489Y017043D01*
X015489Y017379D01*
X015225Y017643D01*
X014853Y017643D01*
X014589Y017379D01*
X014589Y017006D01*
X014853Y016743D01*
X015089Y016743D01*
X015183Y016630D01*
X015183Y013740D01*
X014969Y013740D01*
X014869Y013641D01*
X014869Y013506D01*
X014382Y013506D01*
X014382Y013641D01*
X014283Y013740D01*
X013433Y013740D01*
X013334Y013641D01*
X013334Y012870D01*
X013433Y012771D01*
X014283Y012771D01*
X014382Y012870D01*
X014382Y013006D01*
X014869Y013006D01*
X014869Y012870D01*
X014969Y012771D01*
X014929Y012811D02*
X014323Y012811D01*
X014382Y012909D02*
X014869Y012909D01*
X014869Y013599D02*
X014382Y013599D01*
X014326Y013697D02*
X014925Y013697D01*
X015183Y013796D02*
X011939Y013796D01*
X011841Y013894D02*
X015183Y013894D01*
X015183Y013993D02*
X011742Y013993D01*
X011644Y014091D02*
X015183Y014091D01*
X015183Y014190D02*
X011545Y014190D01*
X011447Y014288D02*
X015183Y014288D01*
X015183Y014387D02*
X011348Y014387D01*
X011250Y014485D02*
X015183Y014485D01*
X015183Y014584D02*
X011151Y014584D01*
X011053Y014682D02*
X015183Y014682D01*
X015183Y014781D02*
X010958Y014781D01*
X010958Y014879D02*
X015183Y014879D01*
X015183Y014978D02*
X010958Y014978D01*
X010958Y015076D02*
X015183Y015076D01*
X015183Y015175D02*
X010958Y015175D01*
X010958Y015273D02*
X015183Y015273D01*
X015183Y015372D02*
X010958Y015372D01*
X010958Y015470D02*
X015183Y015470D01*
X015183Y015569D02*
X010958Y015569D01*
X010958Y015667D02*
X015183Y015667D01*
X015183Y015766D02*
X010958Y015766D01*
X010958Y015864D02*
X015183Y015864D01*
X015183Y015963D02*
X010958Y015963D01*
X010958Y016061D02*
X015183Y016061D01*
X015183Y016160D02*
X010958Y016160D01*
X010958Y016258D02*
X015183Y016258D01*
X015183Y016357D02*
X010958Y016357D01*
X010926Y016455D02*
X015183Y016455D01*
X015183Y016554D02*
X010835Y016554D01*
X010736Y016652D02*
X015164Y016652D01*
X014845Y016751D02*
X010638Y016751D01*
X010539Y016849D02*
X014746Y016849D01*
X014648Y016948D02*
X010441Y016948D01*
X010342Y017046D02*
X014589Y017046D01*
X014589Y017145D02*
X010244Y017145D01*
X010145Y017243D02*
X014589Y017243D01*
X014589Y017342D02*
X010047Y017342D01*
X009948Y017440D02*
X014650Y017440D01*
X014749Y017539D02*
X009850Y017539D01*
X009751Y017637D02*
X014847Y017637D01*
X015231Y017637D02*
X016032Y017637D01*
X016131Y017539D02*
X015329Y017539D01*
X015428Y017440D02*
X016229Y017440D01*
X016246Y017342D02*
X015489Y017342D01*
X015489Y017243D02*
X016246Y017243D01*
X016246Y017145D02*
X015489Y017145D01*
X015489Y017046D02*
X016246Y017046D01*
X016246Y016948D02*
X015569Y016948D01*
X015651Y016849D02*
X016246Y016849D01*
X016246Y016751D02*
X015685Y016751D01*
X015683Y016652D02*
X016246Y016652D01*
X016246Y016554D02*
X015683Y016554D01*
X015683Y016455D02*
X016246Y016455D01*
X016246Y016357D02*
X015683Y016357D01*
X015683Y016258D02*
X016246Y016258D01*
X016246Y016160D02*
X015683Y016160D01*
X015683Y016061D02*
X016246Y016061D01*
X016246Y015963D02*
X015683Y015963D01*
X015683Y015864D02*
X016246Y015864D01*
X016246Y015766D02*
X015683Y015766D01*
X015683Y015667D02*
X016246Y015667D01*
X016246Y015569D02*
X015683Y015569D01*
X015683Y015470D02*
X016246Y015470D01*
X016246Y015372D02*
X015683Y015372D01*
X015683Y015273D02*
X016246Y015273D01*
X016246Y015175D02*
X015683Y015175D01*
X015683Y015076D02*
X016246Y015076D01*
X016246Y014978D02*
X015683Y014978D01*
X015683Y014879D02*
X016246Y014879D01*
X016246Y014781D02*
X015683Y014781D01*
X015683Y014682D02*
X016246Y014682D01*
X016246Y014584D02*
X015683Y014584D01*
X015683Y014485D02*
X016246Y014485D01*
X016246Y014387D02*
X015683Y014387D01*
X015683Y014288D02*
X016270Y014288D01*
X016350Y014190D02*
X015683Y014190D01*
X015683Y014091D02*
X016448Y014091D01*
X016547Y013993D02*
X015683Y013993D01*
X015683Y013894D02*
X016645Y013894D01*
X016744Y013796D02*
X015683Y013796D01*
X015940Y013697D02*
X016500Y013697D01*
X016444Y013599D02*
X015996Y013599D01*
X015996Y013500D02*
X016444Y013500D01*
X016444Y013402D02*
X015996Y013402D01*
X015996Y013303D02*
X016444Y013303D01*
X016444Y013205D02*
X015996Y013205D01*
X015996Y013106D02*
X016444Y013106D01*
X016444Y013008D02*
X015996Y013008D01*
X015996Y012909D02*
X016444Y012909D01*
X016503Y012811D02*
X015937Y012811D01*
X015921Y012614D02*
X016519Y012614D01*
X016444Y012515D02*
X015996Y012515D01*
X015996Y012417D02*
X016444Y012417D01*
X016444Y012318D02*
X015996Y012318D01*
X015996Y012220D02*
X016444Y012220D01*
X016444Y012121D02*
X015996Y012121D01*
X015996Y012023D02*
X016444Y012023D01*
X016444Y011924D02*
X015996Y011924D01*
X015996Y011826D02*
X016444Y011826D01*
X016484Y011727D02*
X015956Y011727D01*
X015683Y011629D02*
X016758Y011629D01*
X016758Y011530D02*
X015683Y011530D01*
X015683Y011432D02*
X016758Y011432D01*
X016758Y011333D02*
X015683Y011333D01*
X015683Y011235D02*
X016758Y011235D01*
X016758Y011136D02*
X015683Y011136D01*
X015683Y011038D02*
X016758Y011038D01*
X016758Y010939D02*
X015683Y010939D01*
X015683Y010841D02*
X016758Y010841D01*
X016758Y010742D02*
X015683Y010742D01*
X015683Y010644D02*
X016758Y010644D01*
X016758Y010545D02*
X015683Y010545D01*
X015683Y010447D02*
X016758Y010447D01*
X016758Y010348D02*
X015683Y010348D01*
X015683Y010250D02*
X016758Y010250D01*
X016758Y010151D02*
X015683Y010151D01*
X015683Y010053D02*
X016758Y010053D01*
X016758Y009954D02*
X015683Y009954D01*
X015683Y009856D02*
X016758Y009856D01*
X016758Y009757D02*
X015683Y009757D01*
X015683Y009659D02*
X016758Y009659D01*
X016758Y009560D02*
X015683Y009560D01*
X015683Y009462D02*
X016758Y009462D01*
X016758Y009166D02*
X015781Y009166D01*
X015880Y009068D02*
X016758Y009068D01*
X016758Y008969D02*
X015978Y008969D01*
X016077Y008871D02*
X016758Y008871D01*
X016758Y008772D02*
X016175Y008772D01*
X016274Y008674D02*
X016758Y008674D01*
X016758Y008575D02*
X016372Y008575D01*
X016471Y008477D02*
X016758Y008477D01*
X016758Y008378D02*
X016569Y008378D01*
X016668Y008280D02*
X016758Y008280D01*
X015271Y008969D02*
X013321Y008969D01*
X013321Y008871D02*
X013321Y012754D01*
X013297Y012811D02*
X013393Y012811D01*
X013334Y012909D02*
X013219Y012909D01*
X013121Y013008D02*
X013334Y013008D01*
X013334Y013106D02*
X013022Y013106D01*
X012924Y013205D02*
X013334Y013205D01*
X013334Y013303D02*
X012825Y013303D01*
X012807Y013402D02*
X013334Y013402D01*
X013334Y013500D02*
X012807Y013500D01*
X012807Y013599D02*
X013334Y013599D01*
X013390Y013697D02*
X012751Y013697D01*
X011133Y013894D02*
X009951Y013894D01*
X009852Y013993D02*
X011035Y013993D01*
X010936Y014091D02*
X009777Y014091D01*
X009777Y014190D02*
X010838Y014190D01*
X010739Y014288D02*
X009777Y014288D01*
X009777Y014387D02*
X010641Y014387D01*
X010542Y014485D02*
X009777Y014485D01*
X009777Y014584D02*
X010475Y014584D01*
X010458Y014682D02*
X009777Y014682D01*
X009777Y014781D02*
X010458Y014781D01*
X010458Y014879D02*
X009777Y014879D01*
X009777Y014978D02*
X010458Y014978D01*
X010458Y015076D02*
X009777Y015076D01*
X009753Y015175D02*
X010458Y015175D01*
X010458Y015273D02*
X009674Y015273D01*
X009576Y015372D02*
X010458Y015372D01*
X010458Y015470D02*
X009477Y015470D01*
X009379Y015569D02*
X010458Y015569D01*
X010458Y015667D02*
X009280Y015667D01*
X009182Y015766D02*
X010458Y015766D01*
X010458Y015864D02*
X009083Y015864D01*
X008985Y015963D02*
X010458Y015963D01*
X010458Y016061D02*
X008886Y016061D01*
X008788Y016160D02*
X010458Y016160D01*
X010423Y016258D02*
X008689Y016258D01*
X008675Y016357D02*
X010325Y016357D01*
X010226Y016455D02*
X008675Y016455D01*
X008675Y016554D02*
X010128Y016554D01*
X010029Y016652D02*
X008675Y016652D01*
X008675Y016751D02*
X009931Y016751D01*
X009832Y016849D02*
X008675Y016849D01*
X008675Y016948D02*
X009734Y016948D01*
X009635Y017046D02*
X008675Y017046D01*
X008675Y017145D02*
X009537Y017145D01*
X009438Y017243D02*
X008675Y017243D01*
X008675Y017342D02*
X009340Y017342D01*
X009241Y017440D02*
X008675Y017440D01*
X008675Y017539D02*
X009143Y017539D01*
X009044Y017637D02*
X008642Y017637D01*
X008566Y017719D02*
X008566Y017719D01*
X008550Y017736D02*
X008946Y017736D01*
X008847Y017834D02*
X008452Y017834D01*
X008650Y018031D02*
X007497Y018031D01*
X007497Y018130D02*
X008552Y018130D01*
X008453Y018228D02*
X007497Y018228D01*
X007494Y018327D02*
X008355Y018327D01*
X008256Y018425D02*
X007396Y018425D01*
X006922Y018721D02*
X005833Y018721D01*
X005734Y018819D02*
X007021Y018819D01*
X007144Y018918D02*
X003042Y018918D01*
X003042Y019016D02*
X036564Y019016D01*
X036564Y018918D02*
X008446Y018918D01*
X008569Y018819D02*
X036564Y018819D01*
X036564Y018721D02*
X008668Y018721D01*
X008766Y018622D02*
X036564Y018622D01*
X036564Y018524D02*
X018723Y018524D01*
X018897Y018425D02*
X036564Y018425D01*
X036564Y018327D02*
X018995Y018327D01*
X019094Y018228D02*
X036564Y018228D01*
X036564Y018130D02*
X019192Y018130D01*
X019291Y018031D02*
X036564Y018031D01*
X036564Y017933D02*
X019389Y017933D01*
X019488Y017834D02*
X036564Y017834D01*
X036564Y017736D02*
X019586Y017736D01*
X019685Y017637D02*
X036564Y017637D01*
X036564Y017539D02*
X019783Y017539D01*
X019882Y017440D02*
X036564Y017440D01*
X036564Y017342D02*
X019980Y017342D01*
X020079Y017243D02*
X036564Y017243D01*
X036564Y017145D02*
X020177Y017145D01*
X020276Y017046D02*
X036564Y017046D01*
X036564Y016948D02*
X020374Y016948D01*
X020472Y016849D02*
X036564Y016849D01*
X036564Y016751D02*
X020512Y016751D01*
X019787Y016455D02*
X016746Y016455D01*
X016746Y016357D02*
X019787Y016357D01*
X019787Y016258D02*
X016746Y016258D01*
X016746Y016160D02*
X019787Y016160D01*
X019787Y016061D02*
X016746Y016061D01*
X016746Y015963D02*
X019787Y015963D01*
X019787Y015864D02*
X016746Y015864D01*
X016746Y015766D02*
X019787Y015766D01*
X019787Y015667D02*
X016746Y015667D01*
X016746Y015569D02*
X019787Y015569D01*
X019787Y015470D02*
X016746Y015470D01*
X016746Y015372D02*
X019787Y015372D01*
X019787Y015273D02*
X016746Y015273D01*
X016746Y015175D02*
X019787Y015175D01*
X019787Y015076D02*
X016746Y015076D01*
X016746Y014978D02*
X019787Y014978D01*
X019787Y014879D02*
X016746Y014879D01*
X016746Y014781D02*
X019787Y014781D01*
X019787Y014682D02*
X016746Y014682D01*
X016746Y014584D02*
X019787Y014584D01*
X019787Y014485D02*
X016761Y014485D01*
X016860Y014387D02*
X019787Y014387D01*
X019787Y014288D02*
X016958Y014288D01*
X017057Y014190D02*
X019787Y014190D01*
X019787Y014091D02*
X017155Y014091D01*
X017234Y013993D02*
X019787Y013993D01*
X019787Y013894D02*
X017258Y013894D01*
X017258Y013796D02*
X019787Y013796D01*
X019689Y013697D02*
X019050Y013697D01*
X019107Y013599D02*
X019633Y013599D01*
X019633Y013500D02*
X019107Y013500D01*
X019107Y013402D02*
X019544Y013402D01*
X019445Y013303D02*
X019107Y013303D01*
X019107Y013205D02*
X019347Y013205D01*
X019248Y013106D02*
X019107Y013106D01*
X019107Y013008D02*
X019150Y013008D01*
X018118Y012811D02*
X017512Y012811D01*
X017571Y012909D02*
X018058Y012909D01*
X018058Y013599D02*
X017571Y013599D01*
X017515Y013697D02*
X018114Y013697D01*
X016746Y016554D02*
X019722Y016554D01*
X019623Y016652D02*
X016746Y016652D01*
X016746Y016751D02*
X017502Y016751D01*
X017530Y016723D02*
X017903Y016723D01*
X018166Y016986D01*
X018166Y017359D01*
X017903Y017623D01*
X017530Y017623D01*
X017266Y017359D01*
X017266Y016986D01*
X017530Y016723D01*
X017403Y016849D02*
X016746Y016849D01*
X016746Y016948D02*
X017305Y016948D01*
X017266Y017046D02*
X016746Y017046D01*
X016746Y017145D02*
X017266Y017145D01*
X017266Y017243D02*
X016746Y017243D01*
X016746Y017342D02*
X017266Y017342D01*
X017347Y017440D02*
X016746Y017440D01*
X016746Y017539D02*
X017446Y017539D01*
X017501Y017736D02*
X017104Y017736D01*
X017203Y017834D02*
X017403Y017834D01*
X017304Y017933D02*
X017301Y017933D01*
X017931Y017736D02*
X018540Y017736D01*
X018638Y017637D02*
X016721Y017637D01*
X016674Y017736D02*
X016641Y017736D01*
X016576Y017834D02*
X016542Y017834D01*
X016477Y017933D02*
X016444Y017933D01*
X016439Y018031D02*
X016345Y018031D01*
X016316Y018130D02*
X016439Y018130D01*
X016439Y018228D02*
X016316Y018228D01*
X016316Y018327D02*
X016439Y018327D01*
X016521Y018425D02*
X016234Y018425D01*
X016136Y018524D02*
X016620Y018524D01*
X017159Y018524D02*
X017446Y018524D01*
X017348Y018425D02*
X017258Y018425D01*
X017987Y017539D02*
X018737Y017539D01*
X018835Y017440D02*
X018085Y017440D01*
X018166Y017342D02*
X018934Y017342D01*
X019032Y017243D02*
X018166Y017243D01*
X018166Y017145D02*
X019131Y017145D01*
X019229Y017046D02*
X018166Y017046D01*
X018127Y016948D02*
X019328Y016948D01*
X019426Y016849D02*
X018029Y016849D01*
X017930Y016751D02*
X019525Y016751D01*
X015651Y017736D02*
X009653Y017736D01*
X009554Y017834D02*
X015552Y017834D01*
X015454Y017933D02*
X009456Y017933D01*
X009357Y018031D02*
X015416Y018031D01*
X015416Y018130D02*
X009259Y018130D01*
X009160Y018228D02*
X015416Y018228D01*
X015416Y018327D02*
X009062Y018327D01*
X008963Y018425D02*
X015497Y018425D01*
X015596Y018524D02*
X008865Y018524D01*
X008749Y017933D02*
X007479Y017933D01*
X006797Y018524D02*
X006273Y018524D01*
X006372Y018425D02*
X006698Y018425D01*
X006600Y018327D02*
X006470Y018327D01*
X006473Y018228D02*
X006597Y018228D01*
X006597Y018130D02*
X006473Y018130D01*
X006473Y018031D02*
X006597Y018031D01*
X006615Y017933D02*
X006455Y017933D01*
X006853Y018622D02*
X005931Y018622D01*
X004659Y018819D02*
X003042Y018819D01*
X003042Y018721D02*
X004560Y018721D01*
X004462Y018622D02*
X003042Y018622D01*
X003042Y018524D02*
X004363Y018524D01*
X004265Y018425D02*
X003042Y018425D01*
X003042Y018327D02*
X004184Y018327D01*
X004159Y018228D02*
X003042Y018228D01*
X003042Y018130D02*
X004159Y018130D01*
X004159Y018031D02*
X003042Y018031D01*
X003042Y017933D02*
X004159Y017933D01*
X004159Y017834D02*
X003042Y017834D01*
X003042Y017736D02*
X004159Y017736D01*
X004159Y017637D02*
X003042Y017637D01*
X003042Y017539D02*
X004159Y017539D01*
X004159Y017440D02*
X003042Y017440D01*
X003042Y017342D02*
X004159Y017342D01*
X004159Y017243D02*
X003042Y017243D01*
X003042Y017145D02*
X004159Y017145D01*
X004159Y017046D02*
X003042Y017046D01*
X003042Y016948D02*
X004159Y016948D01*
X004159Y016849D02*
X003042Y016849D01*
X003042Y016751D02*
X004159Y016751D01*
X004159Y016652D02*
X003042Y016652D01*
X003042Y016554D02*
X004159Y016554D01*
X004159Y016455D02*
X003042Y016455D01*
X003042Y016357D02*
X004159Y016357D01*
X004203Y016258D02*
X003042Y016258D01*
X003042Y016160D02*
X004301Y016160D01*
X004268Y016193D02*
X004268Y016193D01*
X004400Y016061D02*
X003042Y016061D01*
X003042Y015963D02*
X004498Y015963D01*
X004597Y015864D02*
X003042Y015864D01*
X003042Y015766D02*
X004695Y015766D01*
X004748Y015712D02*
X004748Y015712D01*
X004794Y015667D02*
X003042Y015667D01*
X003042Y015569D02*
X006533Y015569D01*
X006632Y015470D02*
X003042Y015470D01*
X003042Y015372D02*
X006730Y015372D01*
X006829Y015273D02*
X003042Y015273D01*
X003042Y015175D02*
X006927Y015175D01*
X007026Y015076D02*
X006504Y015076D01*
X010148Y013697D02*
X010240Y013697D01*
X010858Y011333D02*
X011332Y011333D01*
X011431Y011235D02*
X010957Y011235D01*
X011055Y011136D02*
X011529Y011136D01*
X011628Y011038D02*
X011154Y011038D01*
X011252Y010939D02*
X011726Y010939D01*
X011825Y010841D02*
X011351Y010841D01*
X011449Y010742D02*
X011923Y010742D01*
X012022Y010644D02*
X011548Y010644D01*
X011646Y010545D02*
X012033Y010545D01*
X012033Y010447D02*
X011745Y010447D01*
X011843Y010348D02*
X012033Y010348D01*
X012033Y010250D02*
X011942Y010250D01*
X011530Y009954D02*
X006585Y009954D01*
X006585Y009856D02*
X011629Y009856D01*
X011639Y009757D02*
X006585Y009757D01*
X006585Y009659D02*
X011639Y009659D01*
X011639Y009560D02*
X006585Y009560D01*
X006585Y009462D02*
X011639Y009462D01*
X011639Y009363D02*
X006585Y009363D01*
X006585Y009265D02*
X011639Y009265D01*
X011639Y009166D02*
X006585Y009166D01*
X006585Y009068D02*
X011658Y009068D01*
X011728Y008969D02*
X006585Y008969D01*
X006585Y008871D02*
X011826Y008871D01*
X011925Y008772D02*
X006585Y008772D01*
X006585Y008674D02*
X012023Y008674D01*
X012122Y008575D02*
X006585Y008575D01*
X006585Y008477D02*
X012220Y008477D01*
X012319Y008378D02*
X006585Y008378D01*
X006585Y008280D02*
X012417Y008280D01*
X012516Y008181D02*
X006585Y008181D01*
X006585Y008083D02*
X012614Y008083D01*
X012713Y007984D02*
X006585Y007984D01*
X006585Y007886D02*
X012811Y007886D01*
X012910Y007787D02*
X006585Y007787D01*
X006585Y007689D02*
X013008Y007689D01*
X013107Y007590D02*
X006585Y007590D01*
X006585Y007492D02*
X013205Y007492D01*
X013304Y007393D02*
X006585Y007393D01*
X006585Y007295D02*
X013402Y007295D01*
X013501Y007196D02*
X006585Y007196D01*
X006585Y007098D02*
X013599Y007098D01*
X013698Y006999D02*
X006585Y006999D01*
X006585Y006901D02*
X013796Y006901D01*
X013895Y006802D02*
X006585Y006802D01*
X006585Y006704D02*
X013993Y006704D01*
X014092Y006605D02*
X006585Y006605D01*
X006585Y006507D02*
X014190Y006507D01*
X014289Y006408D02*
X006585Y006408D01*
X006585Y006310D02*
X014387Y006310D01*
X014486Y006211D02*
X006585Y006211D01*
X006585Y006113D02*
X014584Y006113D01*
X014683Y006014D02*
X006585Y006014D01*
X006585Y005916D02*
X014781Y005916D01*
X014880Y005817D02*
X006585Y005817D01*
X006585Y005719D02*
X014978Y005719D01*
X015077Y005620D02*
X006585Y005620D01*
X006585Y005522D02*
X015175Y005522D01*
X015274Y005423D02*
X006585Y005423D01*
X006585Y005325D02*
X015372Y005325D01*
X015471Y005226D02*
X006585Y005226D01*
X006585Y005128D02*
X015569Y005128D01*
X015668Y005029D02*
X006585Y005029D01*
X006585Y004931D02*
X015766Y004931D01*
X015865Y004832D02*
X006585Y004832D01*
X006585Y004734D02*
X015963Y004734D01*
X016062Y004635D02*
X006585Y004635D01*
X006585Y004537D02*
X016160Y004537D01*
X016259Y004438D02*
X006585Y004438D01*
X006585Y004340D02*
X016357Y004340D01*
X016456Y004241D02*
X006585Y004241D01*
X006585Y004143D02*
X016554Y004143D01*
X016653Y004044D02*
X006585Y004044D01*
X006585Y003946D02*
X016751Y003946D01*
X016850Y003847D02*
X006585Y003847D01*
X006585Y003749D02*
X021045Y003749D01*
X020946Y003650D02*
X006585Y003650D01*
X006585Y003552D02*
X020946Y003552D01*
X020946Y003453D02*
X006585Y003453D01*
X006585Y003355D02*
X020946Y003355D01*
X020946Y003256D02*
X006585Y003256D01*
X006585Y003158D02*
X021028Y003158D01*
X021126Y003059D02*
X006585Y003059D01*
X006585Y002961D02*
X021225Y002961D01*
X021656Y002961D02*
X036564Y002961D01*
X036564Y003059D02*
X021755Y003059D01*
X032225Y005128D02*
X032306Y005128D01*
X032324Y005226D02*
X032404Y005226D01*
X034658Y003453D02*
X036564Y003453D01*
X036564Y003355D02*
X034559Y003355D01*
X034461Y003256D02*
X036564Y003256D01*
X036564Y003158D02*
X034333Y003158D01*
X034756Y003552D02*
X036564Y003552D01*
X036564Y003650D02*
X034855Y003650D01*
X034953Y003749D02*
X036564Y003749D01*
X036564Y003847D02*
X035052Y003847D01*
X035150Y003946D02*
X036564Y003946D01*
X036564Y004044D02*
X035249Y004044D01*
X035347Y004143D02*
X036564Y004143D01*
X036564Y004241D02*
X035446Y004241D01*
X035517Y004340D02*
X036564Y004340D01*
X036564Y004438D02*
X035567Y004438D01*
X035655Y004537D02*
X036564Y004537D01*
X036564Y004635D02*
X035655Y004635D01*
X035655Y004734D02*
X036564Y004734D01*
X036564Y004832D02*
X035655Y004832D01*
X035639Y004931D02*
X036564Y004931D01*
X036564Y005029D02*
X035540Y005029D01*
X036564Y002862D02*
X006585Y002862D01*
X006585Y002764D02*
X036564Y002764D01*
X033784Y007984D02*
X033283Y007984D01*
X033382Y008083D02*
X033883Y008083D01*
X035561Y011432D02*
X036564Y011432D01*
X036564Y011530D02*
X035655Y011530D01*
X035655Y011629D02*
X036564Y011629D01*
X036564Y011727D02*
X035655Y011727D01*
X035655Y011826D02*
X036564Y011826D01*
X036564Y011924D02*
X035645Y011924D01*
X035547Y012023D02*
X036564Y012023D01*
X036564Y012121D02*
X035448Y012121D01*
X035623Y012318D02*
X036564Y012318D01*
X036564Y012220D02*
X034208Y012220D01*
X033555Y012614D02*
X032811Y012614D01*
X032886Y012515D02*
X033457Y012515D01*
X033358Y012417D02*
X032886Y012417D01*
X032956Y012318D02*
X033260Y012318D01*
X033161Y012220D02*
X033055Y012220D01*
X035655Y012417D02*
X036564Y012417D01*
X036564Y012515D02*
X035655Y012515D01*
X035655Y012614D02*
X036564Y012614D01*
X036564Y012712D02*
X035655Y012712D01*
X035655Y012811D02*
X036564Y012811D01*
X036564Y012909D02*
X035655Y012909D01*
X035655Y013008D02*
X036564Y013008D01*
X036564Y013106D02*
X035639Y013106D01*
X033199Y015076D02*
X032725Y015076D01*
X032627Y014978D02*
X033101Y014978D01*
X033002Y014879D02*
X032528Y014879D01*
X032824Y015175D02*
X033289Y015175D01*
X033289Y015273D02*
X032923Y015273D01*
X033073Y015372D02*
X033218Y015372D01*
X033176Y016554D02*
X033115Y016554D01*
X033017Y016652D02*
X033274Y016652D01*
X036564Y019115D02*
X003042Y019115D01*
X003042Y019213D02*
X036564Y019213D01*
X036564Y019312D02*
X003042Y019312D01*
X003042Y019410D02*
X036564Y019410D01*
X036564Y019509D02*
X003042Y019509D01*
X003042Y019607D02*
X036564Y019607D01*
X036564Y019706D02*
X003042Y019706D01*
X003042Y019804D02*
X036564Y019804D01*
X036564Y019903D02*
X003042Y019903D01*
X003042Y020001D02*
X036564Y020001D01*
X036564Y020100D02*
X003042Y020100D01*
X003042Y020198D02*
X036564Y020198D01*
X036564Y020297D02*
X003042Y020297D01*
X006585Y010841D02*
X010644Y010841D01*
X010742Y010742D02*
X006585Y010742D01*
X006585Y010644D02*
X010841Y010644D01*
X010939Y010545D02*
X006585Y010545D01*
X006585Y010447D02*
X011038Y010447D01*
X011136Y010348D02*
X006585Y010348D01*
X006585Y010250D02*
X011235Y010250D01*
X011333Y010151D02*
X006585Y010151D01*
X006585Y010053D02*
X011432Y010053D01*
D25*
X011574Y010815D03*
X012441Y011366D03*
X009921Y012704D03*
X007165Y011130D03*
X007165Y009161D03*
X007165Y007193D03*
X007165Y005224D03*
X007165Y003256D03*
X009134Y003256D03*
X011102Y003256D03*
X013071Y003256D03*
X015039Y003256D03*
X017008Y003256D03*
X018976Y003256D03*
X018976Y007193D03*
X018976Y009161D03*
X018189Y011130D03*
X020157Y011130D03*
X022126Y011130D03*
X024094Y013885D03*
X026456Y013885D03*
X028425Y015854D03*
X030393Y015854D03*
X031181Y014279D03*
X033543Y014279D03*
X035511Y013885D03*
X035511Y015854D03*
X035511Y019791D03*
X033543Y019791D03*
X031574Y019791D03*
X029606Y019791D03*
X027637Y019791D03*
X025669Y019791D03*
X023700Y019791D03*
X022519Y015854D03*
X018582Y015854D03*
X015826Y015854D03*
X014645Y015854D03*
X013071Y015854D03*
X011102Y015854D03*
X009921Y015854D03*
X003622Y015854D03*
X003622Y017822D03*
X015039Y009161D03*
X028031Y007193D03*
X031574Y007980D03*
X032283Y009712D03*
X035511Y003256D03*
D26*
X021338Y019555D03*
X011574Y019555D03*
M02*
