%
M48
M72
T01C0.0236
T02C0.0320
T03C0.0354
T04C0.0374
T05C0.0400
T06C0.0433
T07C0.0906
T08C0.1378
%
T01
X7165Y3256
X9134Y3256
X11102Y3256
X13071Y3256
X15039Y3256
X17008Y3256
X18976Y3256
X18976Y7193
X18976Y9161
X18189Y11130
X20157Y11130
X22126Y11130
X24094Y13885
X26456Y13885
X28425Y15854
X30393Y15854
X31181Y14279
X33543Y14279
X35511Y13885
X35511Y15854
X35511Y19791
X33543Y19791
X31574Y19791
X29606Y19791
X27637Y19791
X25669Y19791
X23700Y19791
X22519Y15854
X18582Y15854
X15826Y15854
X14645Y15854
X13071Y15854
X11102Y15854
X9921Y15854
X9921Y12704
X12441Y11366
X11574Y10815
X15039Y9161
X7165Y9161
X7165Y11130
X7165Y7193
X7165Y5224
X3622Y15854
X3622Y17822
X28031Y7193
X31574Y7980
X32283Y9712
X35511Y3256
T02
X30700Y6405
X29300Y6405
X26763Y6405
X25363Y6405
T03
X17716Y17173
X17716Y18157
X16889Y18157
X15866Y18157
X15039Y18157
X15039Y17193
X7874Y17153
X6889Y17153
X6023Y17153
X5197Y17173
X5197Y18137
X6023Y18137
X7047Y18137
X7874Y18137
T04
X24842Y15968
X25826Y15968
X26614Y15968
X27598Y15968
X31767Y15984
X32752Y15984
X33539Y15984
X34523Y15984
T05
X34185Y12720
X35185Y12720
X35185Y11720
X34185Y11720
X34185Y10720
X35185Y10720
X35185Y9720
X34185Y9720
X34185Y8720
X35185Y8720
X35185Y7720
X34185Y7720
X34185Y6720
X35185Y6720
X35185Y5720
X34185Y5720
X34185Y4720
X35185Y4720
X27744Y9236
X26744Y9236
X26744Y10236
X27744Y10236
X27744Y11236
X26744Y11236
X26744Y12236
X27744Y12236
T06
X21441Y7444
X21441Y3444
T07
X23634Y17035
X19055Y19338
X16378Y19653
X13720Y19338
X9212Y19319
X6535Y19633
X3878Y19319
X28807Y17035
X30559Y17051
X35732Y17051
T08
X21338Y19555
X11574Y19555
M30
