G75*
%MOIN*%
%OFA0B0*%
%FSLAX24Y24*%
%IPPOS*%
%LPD*%
%AMOC8*
5,1,8,0,0,1.08239X$1,22.5*
%
%ADD10C,0.0654*%
%ADD11C,0.1386*%
%ADD12OC8,0.0680*%
%ADD13R,0.0680X0.0680*%
%ADD14C,0.1458*%
%ADD15OC8,0.0640*%
%ADD16R,0.0867X0.0710*%
%ADD17R,0.0789X0.0710*%
%ADD18OC8,0.0710*%
%ADD19C,0.0710*%
%ADD20OC8,0.0730*%
%ADD21C,0.2049*%
D10*
X024842Y015681D02*
X024842Y016255D01*
X025826Y016255D02*
X025826Y015681D01*
X026614Y015681D02*
X026614Y016255D01*
X027598Y016255D02*
X027598Y015681D01*
X031767Y015697D02*
X031767Y016271D01*
X032752Y016271D02*
X032752Y015697D01*
X033539Y015697D02*
X033539Y016271D01*
X034523Y016271D02*
X034523Y015697D01*
D11*
X035732Y017051D03*
X030559Y017051D03*
X028807Y017035D03*
X023634Y017035D03*
D12*
X027744Y012236D03*
X027744Y011236D03*
X026744Y011236D03*
X026744Y010236D03*
X027744Y010236D03*
X027744Y009236D03*
X026744Y009236D03*
X034185Y009720D03*
X035185Y009720D03*
X035185Y008720D03*
X034185Y008720D03*
X034185Y007720D03*
X035185Y007720D03*
X035185Y006720D03*
X034185Y006720D03*
X034185Y005720D03*
X035185Y005720D03*
X035185Y004720D03*
X034185Y004720D03*
X034185Y010720D03*
X035185Y010720D03*
X035185Y011720D03*
X034185Y011720D03*
X034185Y012720D03*
D13*
X035185Y012720D03*
X026744Y012236D03*
D14*
X019055Y019338D03*
X016378Y019653D03*
X013720Y019338D03*
X009212Y019319D03*
X006535Y019633D03*
X003878Y019319D03*
D15*
X005197Y018137D03*
X006023Y018137D03*
X007047Y018137D03*
X007874Y018137D03*
X007874Y017153D03*
X006889Y017153D03*
X006023Y017153D03*
X005197Y017173D03*
X015039Y017193D03*
X015039Y018157D03*
X015866Y018157D03*
X016889Y018157D03*
X017716Y018157D03*
X017716Y017173D03*
D16*
X017008Y013256D03*
X017008Y012153D03*
X015433Y012153D03*
X015433Y013256D03*
X022126Y009712D03*
X022126Y008610D03*
X023700Y008610D03*
X023700Y009712D03*
X029212Y009712D03*
X029212Y008610D03*
X030787Y008610D03*
X030787Y009712D03*
D17*
X007559Y012153D03*
X007559Y013256D03*
X009134Y013256D03*
X009134Y012153D03*
X010708Y012153D03*
X010708Y013256D03*
X012283Y013256D03*
X012283Y012153D03*
X013858Y012153D03*
X013858Y013256D03*
X018582Y013256D03*
X018582Y012153D03*
X020157Y012153D03*
X020157Y013256D03*
X022126Y013256D03*
X022126Y012153D03*
X023700Y012153D03*
X023700Y013256D03*
X025275Y013256D03*
X025275Y012153D03*
X029212Y012153D03*
X029212Y013256D03*
X030787Y013256D03*
X030787Y012153D03*
X032362Y012153D03*
X032362Y013256D03*
D18*
X029300Y006405D03*
X026763Y006405D03*
D19*
X025363Y006405D03*
X030700Y006405D03*
D20*
X021441Y007444D03*
X021441Y003444D03*
D21*
X021338Y019555D03*
X011574Y019555D03*
M02*
